<?xml version="1.0" encoding="UTF-8" standalone="no"?>
<!-- Created with Inkscape (http://www.inkscape.org/) -->

<svg
   xmlns:dc="http://purl.org/dc/elements/1.1/"
   xmlns:cc="http://creativecommons.org/ns#"
   xmlns:rdf="http://www.w3.org/1999/02/22-rdf-syntax-ns#"
   xmlns:svg="http://www.w3.org/2000/svg"
   xmlns="http://www.w3.org/2000/svg"
   xmlns:sodipodi="http://sodipodi.sourceforge.net/DTD/sodipodi-0.dtd"
   xmlns:inkscape="http://www.inkscape.org/namespaces/inkscape"
   width="210mm"
   height="297mm"
   viewBox="0 0 210 297"
   version="1.1"
   id="svg8"
   inkscape:version="0.92.5 (2060ec1f9f, 2020-04-08)"
   sodipodi:docname="collisions_sq.svg">
  <defs
     id="defs2">
    <marker
       inkscape:isstock="true"
       style="overflow:visible;"
       id="marker931"
       refX="0.0"
       refY="0.0"
       orient="auto"
       inkscape:stockid="Arrow2Mend">
      <path
         transform="scale(0.6) rotate(180) translate(0,0)"
         d="M 8.7185878,4.0337352 L -2.2072895,0.016013256 L 8.7185884,-4.0017078 C 6.9730900,-1.6296469 6.9831476,1.6157441 8.7185878,4.0337352 z "
         style="fill-rule:evenodd;stroke-width:0.625;stroke-linejoin:round;stroke:#000000;stroke-opacity:1;fill:#000000;fill-opacity:1"
         id="path929" />
    </marker>
    <marker
       inkscape:isstock="true"
       style="overflow:visible;"
       id="marker904"
       refX="0.0"
       refY="0.0"
       orient="auto"
       inkscape:stockid="Arrow2Mend">
      <path
         transform="scale(0.6) rotate(180) translate(0,0)"
         d="M 8.7185878,4.0337352 L -2.2072895,0.016013256 L 8.7185884,-4.0017078 C 6.9730900,-1.6296469 6.9831476,1.6157441 8.7185878,4.0337352 z "
         style="fill-rule:evenodd;stroke-width:0.625;stroke-linejoin:round;stroke:#000000;stroke-opacity:1;fill:#000000;fill-opacity:1"
         id="path902" />
    </marker>
    <marker
       inkscape:stockid="Arrow2Mend"
       orient="auto"
       refY="0.0"
       refX="0.0"
       id="marker1003"
       style="overflow:visible;"
       inkscape:isstock="true">
      <path
         id="path1001"
         style="fill-rule:evenodd;stroke-width:0.625;stroke-linejoin:round;stroke:#000000;stroke-opacity:1;fill:#000000;fill-opacity:1"
         d="M 8.7185878,4.0337352 L -2.2072895,0.016013256 L 8.7185884,-4.0017078 C 6.9730900,-1.6296469 6.9831476,1.6157441 8.7185878,4.0337352 z "
         transform="scale(0.6) rotate(180) translate(0,0)" />
    </marker>
    <marker
       inkscape:stockid="Arrow1Lend"
       orient="auto"
       refY="0.0"
       refX="0.0"
       id="Arrow1Lend"
       style="overflow:visible;"
       inkscape:isstock="true">
      <path
         id="path867"
         d="M 0.0,0.0 L 5.0,-5.0 L -12.5,0.0 L 5.0,5.0 L 0.0,0.0 z "
         style="fill-rule:evenodd;stroke:#000000;stroke-width:1pt;stroke-opacity:1;fill:#000000;fill-opacity:1"
         transform="scale(0.8) rotate(180) translate(12.5,0)" />
    </marker>
    <marker
       inkscape:isstock="true"
       style="overflow:visible"
       id="marker931-3"
       refX="0"
       refY="0"
       orient="auto"
       inkscape:stockid="Arrow2Mend">
      <path
         inkscape:connector-curvature="0"
         transform="scale(-0.6)"
         d="M 8.7185878,4.0337352 -2.2072895,0.01601326 8.7185884,-4.0017078 c -1.7454984,2.3720609 -1.7354408,5.6174519 -6e-7,8.035443 z"
         style="fill:#000000;fill-opacity:1;fill-rule:evenodd;stroke:#000000;stroke-width:0.625;stroke-linejoin:round;stroke-opacity:1"
         id="path929-6" />
    </marker>
  </defs>
  <sodipodi:namedview
     id="base"
     pagecolor="#ffffff"
     bordercolor="#666666"
     borderopacity="1.0"
     inkscape:pageopacity="0.0"
     inkscape:pageshadow="2"
     inkscape:zoom="0.30273413"
     inkscape:cx="1859.7177"
     inkscape:cy="1660.0079"
     inkscape:document-units="mm"
     inkscape:current-layer="layer1"
     showgrid="false"
     inkscape:window-width="1880"
     inkscape:window-height="1055"
     inkscape:window-x="40"
     inkscape:window-y="0"
     inkscape:window-maximized="1" />
  <metadata
     id="metadata5">
    <rdf:RDF>
      <cc:Work
         rdf:about="">
        <dc:format>image/svg+xml</dc:format>
        <dc:type
           rdf:resource="http://purl.org/dc/dcmitype/StillImage" />
        <dc:title />
      </cc:Work>
    </rdf:RDF>
  </metadata>
  <g
     inkscape:label="Layer 1"
     inkscape:groupmode="layer"
     id="layer1">
    <flowRoot
       xml:space="preserve"
       id="flowRoot4825"
       style="fill:black;fill-opacity:1;stroke:none;font-family:sans-serif;font-style:normal;font-weight:normal;font-size:16px;line-height:1.25;letter-spacing:0px;word-spacing:0px"><flowRegion
         id="flowRegion4827"><rect
           id="rect4829"
           width="486.99423"
           height="331.26166"
           x="221.72095"
           y="296.34518" /></flowRegion><flowPara
         id="flowPara4831" /></flowRoot>    <g
       id="g12210"
       transform="translate(19.16373,-134.68677)">
      <g
         transform="translate(200.46122,-95.172168)"
         id="g11904">
        <rect
           ry="22.46051"
           transform="rotate(-0.301766)"
           style="fill:none;fill-opacity:0.48258709;stroke:#000000;stroke-width:0.63700002;stroke-miterlimit:4;stroke-dasharray:none;stroke-dashoffset:0;stroke-opacity:1"
           id="rect11514"
           width="65.928864"
           height="65.928856"
           x="51.135078"
           y="11.82187" />
        <g
           id="g11869"
           transform="translate(-0.0842641,-0.41260115)">
          <path
             inkscape:connector-curvature="0"
             id="path11496"
             style="fill:#eaa2a6;fill-opacity:1;fill-rule:nonzero;stroke:none;stroke-width:0.03087132"
             d="m 90.425883,49.143947 c -2.68705,1.97234 -3.26656,5.750035 -1.29411,8.437283 1.97247,2.687239 5.75014,3.26667 8.43719,1.29433 2.687527,-1.972703 3.266807,-5.750216 1.29435,-8.437454 -1.97247,-2.687259 -5.74991,-3.266861 -8.43743,-1.294159" />
          <path
             inkscape:connector-curvature="0"
             id="path11498"
             style="fill:#e59393;fill-opacity:1;fill-rule:nonzero;stroke:none;stroke-width:0.03087132"
             d="m 90.425783,49.144048 -0.27401,-0.373302 c -2.89342,2.124209 -3.51705,6.19086 -1.39339,9.084595 2.12432,2.893621 6.19089,3.517581 9.08467,1.39387 2.893657,-2.12439 3.517527,-6.191222 1.39371,-9.085216 -2.12415,-2.893362 -6.19096,-3.517141 -9.08499,-1.393249 l 0.27401,0.373302 0.27418,0.373541 c 1.24228,-0.911476 2.73157,-1.231854 4.14276,-1.015844 1.41107,0.216871 2.7356,0.969055 3.64718,2.210461 0.91127,1.242018 1.23186,2.73112 1.01582,4.142317 -0.2169,1.411072 -0.96912,2.735613 -2.21086,3.647845 -1.24198,0.910865 -2.73108,1.231492 -4.14227,1.015482 -1.41107,-0.216881 -2.73559,-0.969065 -3.64736,-2.21072 -0.91108,-1.241769 -1.23167,-2.730861 -1.01563,-4.142058 0.2169,-1.411072 0.96893,-2.735872 2.21036,-3.647483 l -0.27418,-0.373541" />
          <path
             d="m 74.523672,41.323709 c 3.294921,0.505418 6.375821,-1.755736 6.881281,-5.050952 0.50542,-3.294912 -1.75609,-6.375555 -5.051007,-6.880972 -3.294604,-0.50537 -6.375504,1.755783 -6.880924,5.050695 -0.50546,3.295216 1.75604,6.375859 5.05065,6.881229"
             style="fill:#a8d89d;fill-opacity:1;fill-rule:nonzero;stroke:none;stroke-width:0.03087099"
             id="path11502"
             inkscape:connector-curvature="0" />
          <path
             d="m 74.523672,41.323709 -0.0703,0.458017 c 3.548231,0.543962 6.864991,-1.890582 7.409561,-5.438713 0.54391,-3.547921 -1.89063,-6.864673 -5.438767,-7.409244 -3.547614,-0.543869 -6.864674,1.890628 -7.409204,5.438455 -0.54396,3.548225 1.89089,6.865024 5.43841,7.409502 l 0.0703,-0.458017 0.0702,-0.458016 c -1.52234,-0.233517 -2.80194,-1.060062 -3.64704,-2.210671 -0.8444,-1.151127 -1.2491,-2.619585 -1.01584,-4.142285 0.23382,-1.522302 1.06006,-2.801942 2.21067,-3.647047 1.15117,-0.844707 2.61963,-1.249406 4.142024,-1.016194 1.522617,0.23387 2.802567,1.060156 3.647317,2.211024 0.8447,1.151173 1.2494,2.619631 1.01589,4.14198 -0.23357,1.522653 -1.05981,2.802294 -2.21072,3.647352 -1.15082,0.844448 -2.619637,1.249406 -4.142301,1.015841 l -0.0702,0.458016"
             style="fill:#9dce9a;fill-opacity:1;fill-rule:nonzero;stroke:none;stroke-width:0.03087099"
             id="path11504"
             inkscape:connector-curvature="0" />
          <g
             id="g11520"
             transform="rotate(-0.301777,-9607.4748,2812.1007)">
            <path
               inkscape:connector-curvature="0"
               id="path11516"
               style="fill:#d64c53;fill-opacity:1;fill-rule:nonzero;stroke:none;stroke-width:0.03087132"
               d="m 108.35409,103.63399 c -2.6974,1.95816 -3.2968,5.73275 -1.33853,8.43035 1.95829,2.69759 5.73286,3.29691 8.43026,1.33875 2.69788,-1.95852 3.29705,-5.73293 1.33877,-8.43052 -1.95829,-2.69761 -5.73262,-3.2971 -8.4305,-1.33858" />
            <path
               inkscape:connector-curvature="0"
               id="path11518"
               style="fill:#cd2e2f;fill-opacity:1;fill-rule:nonzero;stroke:none;stroke-width:0.03087132"
               d="m 108.35399,103.63409 -0.27204,-0.37474 c -2.90456,2.10894 -3.5496,6.17225 -1.44122,9.07713 2.10905,2.90477 6.17228,3.55014 9.07721,1.4417 2.90481,-2.10912 3.55009,-6.17261 1.44154,-9.07775 -2.10888,-2.90451 -6.17235,-3.5497 -9.07753,-1.44108 l 0.27204,0.37474 0.27221,0.37498 c 1.24707,-0.90492 2.73802,-1.21745 4.14806,-0.99401 1.4099,0.2243 2.73045,0.98345 3.63548,2.22964 0.90472,1.2468 1.21746,2.73757 0.99399,4.14761 -0.22433,1.40991 -0.98351,2.73047 -2.23004,3.63615 -1.24676,0.90431 -2.73753,1.21709 -4.14756,0.99365 -1.40991,-0.22431 -2.73045,-0.98346 -3.63567,-2.2299 -0.90453,-1.24655 -1.21727,-2.73731 -0.9938,-4.14735 0.22433,-1.40991 0.98333,-2.73073 2.22954,-3.63579 l -0.27221,-0.37498" />
          </g>
          <g
             transform="translate(-23.009309,0.22558146)"
             id="g11812">
            <path
               inkscape:connector-curvature="0"
               id="path11508"
               style="fill:#d2b0db;fill-opacity:1;fill-rule:nonzero;stroke:none;stroke-width:0.03087132"
               d="m 120.70569,39.943727 c 2.68704,-1.97234 3.26656,-5.750039 1.2941,-8.437283 -1.97247,-2.687245 -5.75015,-3.266675 -8.43719,-1.294335 -2.68754,1.972705 -3.2668,5.750222 -1.29434,8.437467 1.97246,2.687244 5.74989,3.266856 8.43743,1.294151" />
            <path
               inkscape:connector-curvature="0"
               id="path11510"
               style="fill:#c59fd2;fill-opacity:1;fill-rule:nonzero;stroke:none;stroke-width:0.03087132"
               d="m 120.70569,39.943727 0.274,0.373297 c 2.89342,-2.124208 3.51704,-6.190856 1.3934,-9.084592 -2.12433,-2.89362 -6.19089,-3.517579 -9.08468,-1.393869 -2.89366,2.124391 -3.51753,6.191222 -1.39371,9.085207 2.12415,2.893371 6.19096,3.517147 9.08499,1.393254 l -0.274,-0.373297 -0.27419,-0.373546 c -1.24228,0.91148 -2.73157,1.231856 -4.14276,1.015845 -1.41107,-0.216874 -2.7356,-0.969058 -3.64718,-2.210463 -0.91127,-1.242019 -1.23186,-2.731114 -1.01582,-4.142314 0.21691,-1.411069 0.96912,-2.735614 2.21086,-3.647842 1.24198,-0.910866 2.73108,-1.231491 4.14227,-1.01548 1.41107,0.216874 2.73559,0.969058 3.64736,2.210712 0.91109,1.24177 1.23168,2.730864 1.01564,4.142065 -0.21691,1.411069 -0.96894,2.735863 -2.21037,3.647477 l 0.27419,0.373546" />
            <g
               transform="matrix(0.70545571,-0.51781822,0.51780205,0.7054441,51.051199,2.2389759)"
               id="g11526">
              <path
                 inkscape:connector-curvature="0"
                 id="path11522"
                 style="fill:#a967ba;fill-opacity:1;fill-rule:nonzero;stroke:none;stroke-width:0.03527778"
                 d="m 44.125508,80.856045 c 3.808942,0 6.897159,-3.088216 6.897159,-6.897511 0,-3.809295 -3.088217,-6.897512 -6.897159,-6.897512 -3.809648,0 -6.897512,3.088217 -6.897512,6.897512 0,3.809295 3.087864,6.897511 6.897512,6.897511" />
              <path
                 inkscape:connector-curvature="0"
                 id="path11524"
                 style="fill:#8f45a8;fill-opacity:1;fill-rule:nonzero;stroke:none;stroke-width:0.03527778"
                 d="m 44.125508,80.856045 v 0.529167 c 4.101747,-3.53e-4 7.425972,-3.324931 7.426325,-7.426678 -3.53e-4,-4.1021 -3.324578,-7.426678 -7.426325,-7.427031 -4.1021,3.53e-4 -7.426678,3.324931 -7.427031,7.427031 3.53e-4,4.101747 3.324931,7.426325 7.427031,7.426678 v -0.529167 -0.529519 c -1.760714,-3.53e-4 -3.349273,-0.712258 -4.503209,-1.865489 -1.15323,-1.153936 -1.864783,-2.742495 -1.865136,-4.502503 3.53e-4,-1.760361 0.711906,-3.34892 1.865136,-4.502856 1.153936,-1.153231 2.742495,-1.864783 4.503209,-1.865489 1.760008,7.06e-4 3.348567,0.712258 4.502503,1.865489 1.15323,1.153936 1.864783,2.742495 1.865136,4.502856 -3.53e-4,1.760008 -0.711906,3.348567 -1.865136,4.502503 -1.153936,1.153231 -2.742495,1.865136 -4.502503,1.865489 v 0.529519" />
            </g>
          </g>
          <path
             inkscape:connector-curvature="0"
             id="path11528"
             d="M 68.480836,61.319962 81.292863,47.845426"
             style="fill:none;stroke:#000000;stroke-width:0.565;stroke-linecap:butt;stroke-linejoin:miter;stroke-miterlimit:4;stroke-dasharray:none;stroke-opacity:1;marker-end:url(#marker931-3)"
             sodipodi:nodetypes="cc" />
          <g
             id="g11534"
             transform="matrix(0.87511979,0.01114637,-0.0111475,0.87511957,107.16446,-2.3936341)">
            <path
               d="m -43.941201,80.856045 c 3.809294,0 6.89737,-3.088216 6.89737,-6.897511 0,-3.809295 -3.088076,-6.897512 -6.89737,-6.897512 -3.80933,0 -6.897512,3.088217 -6.897512,6.897512 0,3.809295 3.088182,6.897511 6.897512,6.897511"
               style="fill:#6a78c4;fill-opacity:1;fill-rule:nonzero;stroke:none;stroke-width:0.03527778"
               id="path11530"
               inkscape:connector-curvature="0" />
            <path
               d="m -43.941201,80.856045 v 0.529167 c 4.101853,-3.53e-4 7.426396,-3.324931 7.426784,-7.426678 -3.88e-4,-4.1021 -3.324931,-7.426678 -7.426784,-7.427031 -4.101995,3.53e-4 -7.426538,3.324931 -7.426784,7.427031 2.46e-4,4.101747 3.324789,7.426325 7.426784,7.426678 v -0.529167 -0.529519 c -1.760185,-3.53e-4 -3.34892,-0.712258 -4.502892,-1.865489 -1.153124,-1.153936 -1.864889,-2.742495 -1.865171,-4.502503 2.82e-4,-1.760361 0.712047,-3.34892 1.865171,-4.502856 1.153972,-1.153231 2.742707,-1.864783 4.502892,-1.865489 1.760043,7.06e-4 3.348778,0.712258 4.502891,1.865489 1.152983,1.153936 1.864748,2.742495 1.86503,4.502856 -2.82e-4,1.760008 -0.712047,3.348567 -1.86503,4.502503 -1.154113,1.153231 -2.742848,1.865136 -4.502891,1.865489 v 0.529519"
               style="fill:#4c5cb3;fill-opacity:1;fill-rule:nonzero;stroke:none;stroke-width:0.03527778"
               id="path11532"
               inkscape:connector-curvature="0" />
          </g>
          <g
             id="g11540"
             transform="matrix(0.86496606,0.13267996,-0.13267991,0.8649663,49.257832,-23.265185)">
            <path
               d="m 35.072171,65.336644 c 3.809295,0 6.897512,-3.087864 6.897512,-6.897511 0,-3.809295 -3.088217,-6.897159 -6.897512,-6.897159 -3.808942,0 -6.897159,3.087864 -6.897159,6.897159 0,3.809647 3.088217,6.897511 6.897159,6.897511"
               style="fill:#56b342;fill-opacity:1;fill-rule:nonzero;stroke:none;stroke-width:0.03527778"
               id="path11536"
               inkscape:connector-curvature="0" />
            <path
               d="m 35.072171,65.336644 v 0.52952 c 4.1021,-3.53e-4 7.426678,-3.324931 7.427031,-7.427031 -3.53e-4,-4.101748 -3.324931,-7.426326 -7.427031,-7.426678 -4.101395,3.52e-4 -7.426325,3.32493 -7.426678,7.426678 3.53e-4,4.1021 3.325283,7.426678 7.426678,7.427031 v -0.52952 -0.529519 c -1.760008,0 -3.348567,-0.711906 -4.502503,-1.865136 -1.153231,-1.153936 -1.864783,-2.742495 -1.865136,-4.502856 3.53e-4,-1.760009 0.711905,-3.348567 1.865136,-4.502503 1.153936,-1.153584 2.742495,-1.865136 4.502503,-1.865489 1.760361,3.53e-4 3.349273,0.711905 4.502856,1.865489 1.153583,1.153936 1.865136,2.742494 1.865136,4.502503 0,1.760361 -0.711553,3.34892 -1.865136,4.502856 -1.153583,1.15323 -2.742495,1.865136 -4.502856,1.865136 v 0.529519"
               style="fill:#3b9c3b;fill-opacity:1;fill-rule:nonzero;stroke:none;stroke-width:0.03527778"
               id="path11538"
               inkscape:connector-curvature="0" />
          </g>
          <path
             sodipodi:open="true"
             style="fill:none;fill-opacity:1;fill-rule:nonzero;stroke:#000000;stroke-width:0.51300001;stroke-linecap:round;stroke-linejoin:miter;stroke-miterlimit:4;stroke-dasharray:none;stroke-dashoffset:0;stroke-opacity:1;paint-order:markers stroke fill"
             id="path11542"
             sodipodi:type="arc"
             sodipodi:cx="50.164719"
             sodipodi:cy="-60.011402"
             sodipodi:rx="9.5111532"
             sodipodi:ry="9.5111532"
             sodipodi:start="1.2868568"
             sodipodi:end="3.9116453"
             d="m 52.829169,-50.881082 a 9.5111532,9.5111532 0 0 1 -10.810776,-4.221205 9.5111532,9.5111532 0 0 1 1.318516,-11.530524"
             transform="rotate(74.006301)" />
          <path
             transform="rotate(74.006301)"
             d="m 53.831021,-47.406673 a 13.185863,13.185863 0 0 1 -14.987606,-5.8521 13.185863,13.185863 0 0 1 1.827935,-15.985433"
             sodipodi:end="3.9116453"
             sodipodi:start="1.2868568"
             sodipodi:ry="13.185863"
             sodipodi:rx="13.185863"
             sodipodi:cy="-60.064564"
             sodipodi:cx="50.137138"
             sodipodi:type="arc"
             id="path11544"
             style="fill:none;fill-opacity:1;fill-rule:nonzero;stroke:#000000;stroke-width:0.51300001;stroke-linecap:round;stroke-linejoin:miter;stroke-miterlimit:4;stroke-dasharray:none;stroke-dashoffset:0;stroke-opacity:1;paint-order:markers stroke fill"
             sodipodi:open="true" />
          <g
             transform="rotate(47.331923,178.78395,164.69251)"
             id="g11552">
            <path
               sodipodi:open="true"
               style="fill:none;fill-opacity:1;fill-rule:nonzero;stroke:#000000;stroke-width:0.51300001;stroke-linecap:round;stroke-linejoin:miter;stroke-miterlimit:4;stroke-dasharray:none;stroke-dashoffset:0;stroke-opacity:1;paint-order:markers stroke fill"
               id="path11548"
               sodipodi:type="arc"
               sodipodi:cx="107.14416"
               sodipodi:cy="-84.752838"
               sodipodi:rx="9.5111532"
               sodipodi:ry="9.5111532"
               sodipodi:start="1.2868568"
               sodipodi:end="3.9116453"
               d="m 109.80861,-75.622518 a 9.5111532,9.5111532 0 0 1 -10.810778,-4.221205 9.5111532,9.5111532 0 0 1 1.318518,-11.530524"
               transform="rotate(117.41753)" />
            <path
               transform="rotate(117.41753)"
               d="m 110.81046,-72.148109 a 13.185863,13.185863 0 0 1 -14.987606,-5.8521 13.185863,13.185863 0 0 1 1.827935,-15.985433"
               sodipodi:end="3.9116453"
               sodipodi:start="1.2868568"
               sodipodi:ry="13.185863"
               sodipodi:rx="13.185863"
               sodipodi:cy="-84.806"
               sodipodi:cx="107.11658"
               sodipodi:type="arc"
               id="path11550"
               style="fill:none;fill-opacity:1;fill-rule:nonzero;stroke:#000000;stroke-width:0.51300001;stroke-linecap:round;stroke-linejoin:miter;stroke-miterlimit:4;stroke-dasharray:none;stroke-dashoffset:0;stroke-opacity:1;paint-order:markers stroke fill"
               sodipodi:open="true" />
          </g>
          <g
             transform="matrix(0.64976242,-0.76013736,-0.76013736,-0.64976242,182.83245,164.50268)"
             id="g11558">
            <path
               sodipodi:open="true"
               style="fill:none;fill-opacity:1;fill-rule:nonzero;stroke:#000000;stroke-width:0.51300001;stroke-linecap:round;stroke-linejoin:miter;stroke-miterlimit:4;stroke-dasharray:none;stroke-dashoffset:0;stroke-opacity:1;paint-order:markers stroke fill"
               id="path11554"
               sodipodi:type="arc"
               sodipodi:cx="107.14416"
               sodipodi:cy="-84.752838"
               sodipodi:rx="9.5111532"
               sodipodi:ry="9.5111532"
               sodipodi:start="1.2868568"
               sodipodi:end="3.9116453"
               d="m 109.80861,-75.622518 a 9.5111532,9.5111532 0 0 1 -10.810778,-4.221205 9.5111532,9.5111532 0 0 1 1.318518,-11.530524"
               transform="rotate(117.41753)" />
            <path
               transform="rotate(117.41753)"
               d="m 110.81046,-72.148109 a 13.185863,13.185863 0 0 1 -14.987606,-5.8521 13.185863,13.185863 0 0 1 1.827935,-15.985433"
               sodipodi:end="3.9116453"
               sodipodi:start="1.2868568"
               sodipodi:ry="13.185863"
               sodipodi:rx="13.185863"
               sodipodi:cy="-84.806"
               sodipodi:cx="107.11658"
               sodipodi:type="arc"
               id="path11556"
               style="fill:none;fill-opacity:1;fill-rule:nonzero;stroke:#000000;stroke-width:0.51300001;stroke-linecap:round;stroke-linejoin:miter;stroke-miterlimit:4;stroke-dasharray:none;stroke-dashoffset:0;stroke-opacity:1;paint-order:markers stroke fill"
               sodipodi:open="true" />
          </g>
          <rect
             y="17.608376"
             x="57.722679"
             height="53.99316"
             width="53.99316"
             id="rect11791"
             style="fill:none;fill-opacity:0.48258709;stroke:#000000;stroke-width:0;stroke-miterlimit:4;stroke-dasharray:none;stroke-dashoffset:0;stroke-opacity:1" />
          <rect
             style="fill:none;fill-opacity:0.48258709;stroke:#000000;stroke-width:0;stroke-miterlimit:4;stroke-dasharray:none;stroke-dashoffset:0;stroke-opacity:1"
             id="rect11799"
             width="39.539181"
             height="39.539181"
             x="64.949669"
             y="24.835365" />
          <rect
             y="20.404112"
             x="61.19516"
             height="48.401688"
             width="47.048199"
             id="rect11814"
             style="fill:none;fill-opacity:0.48258709;stroke:#000000;stroke-width:0;stroke-miterlimit:4;stroke-dasharray:none;stroke-dashoffset:0;stroke-opacity:1" />
        </g>
      </g>
    </g>
    <g
       id="g12244"
       transform="translate(12.354717,-47.520873)">
      <g
         id="g12038"
         transform="translate(200.97851,3.6710744)">
        <path
           inkscape:connector-curvature="0"
           id="path11976"
           style="fill:#eaa2a6;fill-opacity:1;fill-rule:nonzero;stroke:none;stroke-width:0.03087132"
           d="m 90.425883,49.143947 c -2.68705,1.97234 -3.26656,5.750035 -1.29411,8.437283 1.97247,2.687239 5.75014,3.26667 8.43719,1.29433 2.687527,-1.972703 3.266807,-5.750216 1.29435,-8.437454 -1.97247,-2.687259 -5.74991,-3.266861 -8.43743,-1.294159" />
        <path
           inkscape:connector-curvature="0"
           id="path11978"
           style="fill:#e59393;fill-opacity:1;fill-rule:nonzero;stroke:none;stroke-width:0.03087132"
           d="m 90.425783,49.144048 -0.27401,-0.373302 c -2.89342,2.124209 -3.51705,6.19086 -1.39339,9.084595 2.12432,2.893621 6.19089,3.517581 9.08467,1.39387 2.893657,-2.12439 3.517527,-6.191222 1.39371,-9.085216 -2.12415,-2.893362 -6.19096,-3.517141 -9.08499,-1.393249 l 0.27401,0.373302 0.27418,0.373541 c 1.24228,-0.911476 2.73157,-1.231854 4.14276,-1.015844 1.41107,0.216871 2.7356,0.969055 3.64718,2.210461 0.91127,1.242018 1.23186,2.73112 1.01582,4.142317 -0.2169,1.411072 -0.96912,2.735613 -2.21086,3.647845 -1.24198,0.910865 -2.73108,1.231492 -4.14227,1.015482 -1.41107,-0.216881 -2.73559,-0.969065 -3.64736,-2.21072 -0.91108,-1.241769 -1.23167,-2.730861 -1.01563,-4.142058 0.2169,-1.411072 0.96893,-2.735872 2.21036,-3.647483 l -0.27418,-0.373541" />
        <path
           d="m 74.523672,41.323709 c 3.294921,0.505418 6.375821,-1.755736 6.881281,-5.050952 0.50542,-3.294912 -1.75609,-6.375555 -5.051007,-6.880972 -3.294604,-0.50537 -6.375504,1.755783 -6.880924,5.050695 -0.50546,3.295216 1.75604,6.375859 5.05065,6.881229"
           style="fill:#a8d89d;fill-opacity:1;fill-rule:nonzero;stroke:none;stroke-width:0.03087099"
           id="path11980"
           inkscape:connector-curvature="0" />
        <path
           d="m 74.523672,41.323709 -0.0703,0.458017 c 3.548231,0.543962 6.864991,-1.890582 7.409561,-5.438713 0.54391,-3.547921 -1.89063,-6.864673 -5.438767,-7.409244 -3.547614,-0.543869 -6.864674,1.890628 -7.409204,5.438455 -0.54396,3.548225 1.89089,6.865024 5.43841,7.409502 l 0.0703,-0.458017 0.0702,-0.458016 c -1.52234,-0.233517 -2.80194,-1.060062 -3.64704,-2.210671 -0.8444,-1.151127 -1.2491,-2.619585 -1.01584,-4.142285 0.23382,-1.522302 1.06006,-2.801942 2.21067,-3.647047 1.15117,-0.844707 2.61963,-1.249406 4.142024,-1.016194 1.522617,0.23387 2.802567,1.060156 3.647317,2.211024 0.8447,1.151173 1.2494,2.619631 1.01589,4.14198 -0.23357,1.522653 -1.05981,2.802294 -2.21072,3.647352 -1.15082,0.844448 -2.619637,1.249406 -4.142301,1.015841 l -0.0702,0.458016"
           style="fill:#9dce9a;fill-opacity:1;fill-rule:nonzero;stroke:none;stroke-width:0.03087099"
           id="path11982"
           inkscape:connector-curvature="0" />
        <g
           id="g11988"
           transform="rotate(-0.301777,-9607.4748,2812.1007)">
          <path
             inkscape:connector-curvature="0"
             id="path11984"
             style="fill:#d64c53;fill-opacity:1;fill-rule:nonzero;stroke:none;stroke-width:0.03087132"
             d="m 108.35409,103.63399 c -2.6974,1.95816 -3.2968,5.73275 -1.33853,8.43035 1.95829,2.69759 5.73286,3.29691 8.43026,1.33875 2.69788,-1.95852 3.29705,-5.73293 1.33877,-8.43052 -1.95829,-2.69761 -5.73262,-3.2971 -8.4305,-1.33858" />
          <path
             inkscape:connector-curvature="0"
             id="path11986"
             style="fill:#cd2e2f;fill-opacity:1;fill-rule:nonzero;stroke:none;stroke-width:0.03087132"
             d="m 108.35399,103.63409 -0.27204,-0.37474 c -2.90456,2.10894 -3.5496,6.17225 -1.44122,9.07713 2.10905,2.90477 6.17228,3.55014 9.07721,1.4417 2.90481,-2.10912 3.55009,-6.17261 1.44154,-9.07775 -2.10888,-2.90451 -6.17235,-3.5497 -9.07753,-1.44108 l 0.27204,0.37474 0.27221,0.37498 c 1.24707,-0.90492 2.73802,-1.21745 4.14806,-0.99401 1.4099,0.2243 2.73045,0.98345 3.63548,2.22964 0.90472,1.2468 1.21746,2.73757 0.99399,4.14761 -0.22433,1.40991 -0.98351,2.73047 -2.23004,3.63615 -1.24676,0.90431 -2.73753,1.21709 -4.14756,0.99365 -1.40991,-0.22431 -2.73045,-0.98346 -3.63567,-2.2299 -0.90453,-1.24655 -1.21727,-2.73731 -0.9938,-4.14735 0.22433,-1.40991 0.98333,-2.73073 2.22954,-3.63579 l -0.27221,-0.37498" />
        </g>
        <g
           transform="translate(-23.009309,0.22558146)"
           id="g12000">
          <path
             inkscape:connector-curvature="0"
             id="path11990"
             style="fill:#d2b0db;fill-opacity:1;fill-rule:nonzero;stroke:none;stroke-width:0.03087132"
             d="m 120.70569,39.943727 c 2.68704,-1.97234 3.26656,-5.750039 1.2941,-8.437283 -1.97247,-2.687245 -5.75015,-3.266675 -8.43719,-1.294335 -2.68754,1.972705 -3.2668,5.750222 -1.29434,8.437467 1.97246,2.687244 5.74989,3.266856 8.43743,1.294151" />
          <path
             inkscape:connector-curvature="0"
             id="path11992"
             style="fill:#c59fd2;fill-opacity:1;fill-rule:nonzero;stroke:none;stroke-width:0.03087132"
             d="m 120.70569,39.943727 0.274,0.373297 c 2.89342,-2.124208 3.51704,-6.190856 1.3934,-9.084592 -2.12433,-2.89362 -6.19089,-3.517579 -9.08468,-1.393869 -2.89366,2.124391 -3.51753,6.191222 -1.39371,9.085207 2.12415,2.893371 6.19096,3.517147 9.08499,1.393254 l -0.274,-0.373297 -0.27419,-0.373546 c -1.24228,0.91148 -2.73157,1.231856 -4.14276,1.015845 -1.41107,-0.216874 -2.7356,-0.969058 -3.64718,-2.210463 -0.91127,-1.242019 -1.23186,-2.731114 -1.01582,-4.142314 0.21691,-1.411069 0.96912,-2.735614 2.21086,-3.647842 1.24198,-0.910866 2.73108,-1.231491 4.14227,-1.01548 1.41107,0.216874 2.73559,0.969058 3.64736,2.210712 0.91109,1.24177 1.23168,2.730864 1.01564,4.142065 -0.21691,1.411069 -0.96894,2.735863 -2.21037,3.647477 l 0.27419,0.373546" />
          <g
             transform="matrix(0.70545571,-0.51781822,0.51780205,0.7054441,51.051199,2.2389759)"
             id="g11998">
            <path
               inkscape:connector-curvature="0"
               id="path11994"
               style="fill:#a967ba;fill-opacity:1;fill-rule:nonzero;stroke:none;stroke-width:0.03527778"
               d="m 44.125508,80.856045 c 3.808942,0 6.897159,-3.088216 6.897159,-6.897511 0,-3.809295 -3.088217,-6.897512 -6.897159,-6.897512 -3.809648,0 -6.897512,3.088217 -6.897512,6.897512 0,3.809295 3.087864,6.897511 6.897512,6.897511" />
            <path
               inkscape:connector-curvature="0"
               id="path11996"
               style="fill:#8f45a8;fill-opacity:1;fill-rule:nonzero;stroke:none;stroke-width:0.03527778"
               d="m 44.125508,80.856045 v 0.529167 c 4.101747,-3.53e-4 7.425972,-3.324931 7.426325,-7.426678 -3.53e-4,-4.1021 -3.324578,-7.426678 -7.426325,-7.427031 -4.1021,3.53e-4 -7.426678,3.324931 -7.427031,7.427031 3.53e-4,4.101747 3.324931,7.426325 7.427031,7.426678 v -0.529167 -0.529519 c -1.760714,-3.53e-4 -3.349273,-0.712258 -4.503209,-1.865489 -1.15323,-1.153936 -1.864783,-2.742495 -1.865136,-4.502503 3.53e-4,-1.760361 0.711906,-3.34892 1.865136,-4.502856 1.153936,-1.153231 2.742495,-1.864783 4.503209,-1.865489 1.760008,7.06e-4 3.348567,0.712258 4.502503,1.865489 1.15323,1.153936 1.864783,2.742495 1.865136,4.502856 -3.53e-4,1.760008 -0.711906,3.348567 -1.865136,4.502503 -1.153936,1.153231 -2.742495,1.865136 -4.502503,1.865489 v 0.529519" />
          </g>
        </g>
        <path
           inkscape:connector-curvature="0"
           id="path12002"
           d="M 68.480836,61.319962 81.292863,47.845426"
           style="fill:none;stroke:#000000;stroke-width:0.565;stroke-linecap:butt;stroke-linejoin:miter;stroke-miterlimit:4;stroke-dasharray:none;stroke-opacity:1;marker-end:url(#marker931-3)"
           sodipodi:nodetypes="cc" />
        <g
           id="g12008"
           transform="matrix(0.87511979,0.01114637,-0.0111475,0.87511957,107.16446,-2.3936341)">
          <path
             d="m -43.941201,80.856045 c 3.809294,0 6.89737,-3.088216 6.89737,-6.897511 0,-3.809295 -3.088076,-6.897512 -6.89737,-6.897512 -3.80933,0 -6.897512,3.088217 -6.897512,6.897512 0,3.809295 3.088182,6.897511 6.897512,6.897511"
             style="fill:#6a78c4;fill-opacity:1;fill-rule:nonzero;stroke:none;stroke-width:0.03527778"
             id="path12004"
             inkscape:connector-curvature="0" />
          <path
             d="m -43.941201,80.856045 v 0.529167 c 4.101853,-3.53e-4 7.426396,-3.324931 7.426784,-7.426678 -3.88e-4,-4.1021 -3.324931,-7.426678 -7.426784,-7.427031 -4.101995,3.53e-4 -7.426538,3.324931 -7.426784,7.427031 2.46e-4,4.101747 3.324789,7.426325 7.426784,7.426678 v -0.529167 -0.529519 c -1.760185,-3.53e-4 -3.34892,-0.712258 -4.502892,-1.865489 -1.153124,-1.153936 -1.864889,-2.742495 -1.865171,-4.502503 2.82e-4,-1.760361 0.712047,-3.34892 1.865171,-4.502856 1.153972,-1.153231 2.742707,-1.864783 4.502892,-1.865489 1.760043,7.06e-4 3.348778,0.712258 4.502891,1.865489 1.152983,1.153936 1.864748,2.742495 1.86503,4.502856 -2.82e-4,1.760008 -0.712047,3.348567 -1.86503,4.502503 -1.154113,1.153231 -2.742848,1.865136 -4.502891,1.865489 v 0.529519"
             style="fill:#4c5cb3;fill-opacity:1;fill-rule:nonzero;stroke:none;stroke-width:0.03527778"
             id="path12006"
             inkscape:connector-curvature="0" />
        </g>
        <g
           id="g12014"
           transform="matrix(0.86496606,0.13267996,-0.13267991,0.8649663,49.257832,-23.265185)">
          <path
             d="m 35.072171,65.336644 c 3.809295,0 6.897512,-3.087864 6.897512,-6.897511 0,-3.809295 -3.088217,-6.897159 -6.897512,-6.897159 -3.808942,0 -6.897159,3.087864 -6.897159,6.897159 0,3.809647 3.088217,6.897511 6.897159,6.897511"
             style="fill:#56b342;fill-opacity:1;fill-rule:nonzero;stroke:none;stroke-width:0.03527778"
             id="path12010"
             inkscape:connector-curvature="0" />
          <path
             d="m 35.072171,65.336644 v 0.52952 c 4.1021,-3.53e-4 7.426678,-3.324931 7.427031,-7.427031 -3.53e-4,-4.101748 -3.324931,-7.426326 -7.427031,-7.426678 -4.101395,3.52e-4 -7.426325,3.32493 -7.426678,7.426678 3.53e-4,4.1021 3.325283,7.426678 7.426678,7.427031 v -0.52952 -0.529519 c -1.760008,0 -3.348567,-0.711906 -4.502503,-1.865136 -1.153231,-1.153936 -1.864783,-2.742495 -1.865136,-4.502856 3.53e-4,-1.760009 0.711905,-3.348567 1.865136,-4.502503 1.153936,-1.153584 2.742495,-1.865136 4.502503,-1.865489 1.760361,3.53e-4 3.349273,0.711905 4.502856,1.865489 1.153583,1.153936 1.865136,2.742494 1.865136,4.502503 0,1.760361 -0.711553,3.34892 -1.865136,4.502856 -1.153583,1.15323 -2.742495,1.865136 -4.502856,1.865136 v 0.529519"
             style="fill:#3b9c3b;fill-opacity:1;fill-rule:nonzero;stroke:none;stroke-width:0.03527778"
             id="path12012"
             inkscape:connector-curvature="0" />
        </g>
        <path
           sodipodi:open="true"
           style="fill:none;fill-opacity:1;fill-rule:nonzero;stroke:#000000;stroke-width:0.51300001;stroke-linecap:round;stroke-linejoin:miter;stroke-miterlimit:4;stroke-dasharray:none;stroke-dashoffset:0;stroke-opacity:1;paint-order:markers stroke fill"
           id="path12016"
           sodipodi:type="arc"
           sodipodi:cx="50.164719"
           sodipodi:cy="-60.011402"
           sodipodi:rx="9.5111532"
           sodipodi:ry="9.5111532"
           sodipodi:start="1.2868568"
           sodipodi:end="3.9116453"
           d="m 52.829169,-50.881082 a 9.5111532,9.5111532 0 0 1 -10.810776,-4.221205 9.5111532,9.5111532 0 0 1 1.318516,-11.530524"
           transform="rotate(74.006301)" />
        <path
           transform="rotate(74.006301)"
           d="m 53.831021,-47.406673 a 13.185863,13.185863 0 0 1 -14.987606,-5.8521 13.185863,13.185863 0 0 1 1.827935,-15.985433"
           sodipodi:end="3.9116453"
           sodipodi:start="1.2868568"
           sodipodi:ry="13.185863"
           sodipodi:rx="13.185863"
           sodipodi:cy="-60.064564"
           sodipodi:cx="50.137138"
           sodipodi:type="arc"
           id="path12018"
           style="fill:none;fill-opacity:1;fill-rule:nonzero;stroke:#000000;stroke-width:0.51300001;stroke-linecap:round;stroke-linejoin:miter;stroke-miterlimit:4;stroke-dasharray:none;stroke-dashoffset:0;stroke-opacity:1;paint-order:markers stroke fill"
           sodipodi:open="true" />
        <g
           transform="rotate(47.331923,178.78395,164.69251)"
           id="g12024">
          <path
             sodipodi:open="true"
             style="fill:none;fill-opacity:1;fill-rule:nonzero;stroke:#000000;stroke-width:0.51300001;stroke-linecap:round;stroke-linejoin:miter;stroke-miterlimit:4;stroke-dasharray:none;stroke-dashoffset:0;stroke-opacity:1;paint-order:markers stroke fill"
             id="path12020"
             sodipodi:type="arc"
             sodipodi:cx="107.14416"
             sodipodi:cy="-84.752838"
             sodipodi:rx="9.5111532"
             sodipodi:ry="9.5111532"
             sodipodi:start="1.2868568"
             sodipodi:end="3.9116453"
             d="m 109.80861,-75.622518 a 9.5111532,9.5111532 0 0 1 -10.810778,-4.221205 9.5111532,9.5111532 0 0 1 1.318518,-11.530524"
             transform="rotate(117.41753)" />
          <path
             transform="rotate(117.41753)"
             d="m 110.81046,-72.148109 a 13.185863,13.185863 0 0 1 -14.987606,-5.8521 13.185863,13.185863 0 0 1 1.827935,-15.985433"
             sodipodi:end="3.9116453"
             sodipodi:start="1.2868568"
             sodipodi:ry="13.185863"
             sodipodi:rx="13.185863"
             sodipodi:cy="-84.806"
             sodipodi:cx="107.11658"
             sodipodi:type="arc"
             id="path12022"
             style="fill:none;fill-opacity:1;fill-rule:nonzero;stroke:#000000;stroke-width:0.51300001;stroke-linecap:round;stroke-linejoin:miter;stroke-miterlimit:4;stroke-dasharray:none;stroke-dashoffset:0;stroke-opacity:1;paint-order:markers stroke fill"
             sodipodi:open="true" />
        </g>
        <g
           transform="matrix(0.64976242,-0.76013736,-0.76013736,-0.64976242,182.83245,164.50268)"
           id="g12030">
          <path
             sodipodi:open="true"
             style="fill:none;fill-opacity:1;fill-rule:nonzero;stroke:#000000;stroke-width:0.51300001;stroke-linecap:round;stroke-linejoin:miter;stroke-miterlimit:4;stroke-dasharray:none;stroke-dashoffset:0;stroke-opacity:1;paint-order:markers stroke fill"
             id="path12026"
             sodipodi:type="arc"
             sodipodi:cx="107.14416"
             sodipodi:cy="-84.752838"
             sodipodi:rx="9.5111532"
             sodipodi:ry="9.5111532"
             sodipodi:start="1.2868568"
             sodipodi:end="3.9116453"
             d="m 109.80861,-75.622518 a 9.5111532,9.5111532 0 0 1 -10.810778,-4.221205 9.5111532,9.5111532 0 0 1 1.318518,-11.530524"
             transform="rotate(117.41753)" />
          <path
             transform="rotate(117.41753)"
             d="m 110.81046,-72.148109 a 13.185863,13.185863 0 0 1 -14.987606,-5.8521 13.185863,13.185863 0 0 1 1.827935,-15.985433"
             sodipodi:end="3.9116453"
             sodipodi:start="1.2868568"
             sodipodi:ry="13.185863"
             sodipodi:rx="13.185863"
             sodipodi:cy="-84.806"
             sodipodi:cx="107.11658"
             sodipodi:type="arc"
             id="path12028"
             style="fill:none;fill-opacity:1;fill-rule:nonzero;stroke:#000000;stroke-width:0.51300001;stroke-linecap:round;stroke-linejoin:miter;stroke-miterlimit:4;stroke-dasharray:none;stroke-dashoffset:0;stroke-opacity:1;paint-order:markers stroke fill"
             sodipodi:open="true" />
        </g>
        <rect
           y="17.608376"
           x="57.722679"
           height="53.99316"
           width="53.99316"
           id="rect12032"
           style="fill:none;fill-opacity:0.48258709;stroke:#000000;stroke-width:0;stroke-miterlimit:4;stroke-dasharray:none;stroke-dashoffset:0;stroke-opacity:1" />
        <rect
           style="fill:none;fill-opacity:0.48258709;stroke:#000000;stroke-width:0;stroke-miterlimit:4;stroke-dasharray:none;stroke-dashoffset:0;stroke-opacity:1"
           id="rect12034"
           width="39.539181"
           height="39.539181"
           x="64.949669"
           y="24.835365" />
        <rect
           y="20.404112"
           x="61.19516"
           height="48.401688"
           width="47.048199"
           id="rect12036"
           style="fill:none;fill-opacity:0.48258709;stroke:#000000;stroke-width:0;stroke-miterlimit:4;stroke-dasharray:none;stroke-dashoffset:0;stroke-opacity:1" />
      </g>
    </g>
    <g
       id="g12106"
       transform="rotate(45.079177,357.72821,523.35236)">
      <path
         inkscape:connector-curvature="0"
         id="path12044"
         style="fill:#eaa2a6;fill-opacity:1;fill-rule:nonzero;stroke:none;stroke-width:0.03087132"
         d="m 90.425883,49.143947 c -2.68705,1.97234 -3.26656,5.750035 -1.29411,8.437283 1.97247,2.687239 5.75014,3.26667 8.43719,1.29433 2.687527,-1.972703 3.266807,-5.750216 1.29435,-8.437454 -1.97247,-2.687259 -5.74991,-3.266861 -8.43743,-1.294159" />
      <path
         inkscape:connector-curvature="0"
         id="path12046"
         style="fill:#e59393;fill-opacity:1;fill-rule:nonzero;stroke:none;stroke-width:0.03087132"
         d="m 90.425783,49.144048 -0.27401,-0.373302 c -2.89342,2.124209 -3.51705,6.19086 -1.39339,9.084595 2.12432,2.893621 6.19089,3.517581 9.08467,1.39387 2.893657,-2.12439 3.517527,-6.191222 1.39371,-9.085216 -2.12415,-2.893362 -6.19096,-3.517141 -9.08499,-1.393249 l 0.27401,0.373302 0.27418,0.373541 c 1.24228,-0.911476 2.73157,-1.231854 4.14276,-1.015844 1.41107,0.216871 2.7356,0.969055 3.64718,2.210461 0.91127,1.242018 1.23186,2.73112 1.01582,4.142317 -0.2169,1.411072 -0.96912,2.735613 -2.21086,3.647845 -1.24198,0.910865 -2.73108,1.231492 -4.14227,1.015482 -1.41107,-0.216881 -2.73559,-0.969065 -3.64736,-2.21072 -0.91108,-1.241769 -1.23167,-2.730861 -1.01563,-4.142058 0.2169,-1.411072 0.96893,-2.735872 2.21036,-3.647483 l -0.27418,-0.373541" />
      <path
         d="m 74.523672,41.323709 c 3.294921,0.505418 6.375821,-1.755736 6.881281,-5.050952 0.50542,-3.294912 -1.75609,-6.375555 -5.051007,-6.880972 -3.294604,-0.50537 -6.375504,1.755783 -6.880924,5.050695 -0.50546,3.295216 1.75604,6.375859 5.05065,6.881229"
         style="fill:#a8d89d;fill-opacity:1;fill-rule:nonzero;stroke:none;stroke-width:0.03087099"
         id="path12048"
         inkscape:connector-curvature="0" />
      <path
         d="m 74.523672,41.323709 -0.0703,0.458017 c 3.548231,0.543962 6.864991,-1.890582 7.409561,-5.438713 0.54391,-3.547921 -1.89063,-6.864673 -5.438767,-7.409244 -3.547614,-0.543869 -6.864674,1.890628 -7.409204,5.438455 -0.54396,3.548225 1.89089,6.865024 5.43841,7.409502 l 0.0703,-0.458017 0.0702,-0.458016 c -1.52234,-0.233517 -2.80194,-1.060062 -3.64704,-2.210671 -0.8444,-1.151127 -1.2491,-2.619585 -1.01584,-4.142285 0.23382,-1.522302 1.06006,-2.801942 2.21067,-3.647047 1.15117,-0.844707 2.61963,-1.249406 4.142024,-1.016194 1.522617,0.23387 2.802567,1.060156 3.647317,2.211024 0.8447,1.151173 1.2494,2.619631 1.01589,4.14198 -0.23357,1.522653 -1.05981,2.802294 -2.21072,3.647352 -1.15082,0.844448 -2.619637,1.249406 -4.142301,1.015841 l -0.0702,0.458016"
         style="fill:#9dce9a;fill-opacity:1;fill-rule:nonzero;stroke:none;stroke-width:0.03087099"
         id="path12050"
         inkscape:connector-curvature="0" />
      <g
         id="g12056"
         transform="rotate(-0.301777,-9607.4748,2812.1007)">
        <path
           inkscape:connector-curvature="0"
           id="path12052"
           style="fill:#d64c53;fill-opacity:1;fill-rule:nonzero;stroke:none;stroke-width:0.03087132"
           d="m 108.35409,103.63399 c -2.6974,1.95816 -3.2968,5.73275 -1.33853,8.43035 1.95829,2.69759 5.73286,3.29691 8.43026,1.33875 2.69788,-1.95852 3.29705,-5.73293 1.33877,-8.43052 -1.95829,-2.69761 -5.73262,-3.2971 -8.4305,-1.33858" />
        <path
           inkscape:connector-curvature="0"
           id="path12054"
           style="fill:#cd2e2f;fill-opacity:1;fill-rule:nonzero;stroke:none;stroke-width:0.03087132"
           d="m 108.35399,103.63409 -0.27204,-0.37474 c -2.90456,2.10894 -3.5496,6.17225 -1.44122,9.07713 2.10905,2.90477 6.17228,3.55014 9.07721,1.4417 2.90481,-2.10912 3.55009,-6.17261 1.44154,-9.07775 -2.10888,-2.90451 -6.17235,-3.5497 -9.07753,-1.44108 l 0.27204,0.37474 0.27221,0.37498 c 1.24707,-0.90492 2.73802,-1.21745 4.14806,-0.99401 1.4099,0.2243 2.73045,0.98345 3.63548,2.22964 0.90472,1.2468 1.21746,2.73757 0.99399,4.14761 -0.22433,1.40991 -0.98351,2.73047 -2.23004,3.63615 -1.24676,0.90431 -2.73753,1.21709 -4.14756,0.99365 -1.40991,-0.22431 -2.73045,-0.98346 -3.63567,-2.2299 -0.90453,-1.24655 -1.21727,-2.73731 -0.9938,-4.14735 0.22433,-1.40991 0.98333,-2.73073 2.22954,-3.63579 l -0.27221,-0.37498" />
      </g>
      <g
         transform="translate(-23.009309,0.22558146)"
         id="g12068">
        <path
           inkscape:connector-curvature="0"
           id="path12058"
           style="fill:#d2b0db;fill-opacity:1;fill-rule:nonzero;stroke:none;stroke-width:0.03087132"
           d="m 120.70569,39.943727 c 2.68704,-1.97234 3.26656,-5.750039 1.2941,-8.437283 -1.97247,-2.687245 -5.75015,-3.266675 -8.43719,-1.294335 -2.68754,1.972705 -3.2668,5.750222 -1.29434,8.437467 1.97246,2.687244 5.74989,3.266856 8.43743,1.294151" />
        <path
           inkscape:connector-curvature="0"
           id="path12060"
           style="fill:#c59fd2;fill-opacity:1;fill-rule:nonzero;stroke:none;stroke-width:0.03087132"
           d="m 120.70569,39.943727 0.274,0.373297 c 2.89342,-2.124208 3.51704,-6.190856 1.3934,-9.084592 -2.12433,-2.89362 -6.19089,-3.517579 -9.08468,-1.393869 -2.89366,2.124391 -3.51753,6.191222 -1.39371,9.085207 2.12415,2.893371 6.19096,3.517147 9.08499,1.393254 l -0.274,-0.373297 -0.27419,-0.373546 c -1.24228,0.91148 -2.73157,1.231856 -4.14276,1.015845 -1.41107,-0.216874 -2.7356,-0.969058 -3.64718,-2.210463 -0.91127,-1.242019 -1.23186,-2.731114 -1.01582,-4.142314 0.21691,-1.411069 0.96912,-2.735614 2.21086,-3.647842 1.24198,-0.910866 2.73108,-1.231491 4.14227,-1.01548 1.41107,0.216874 2.73559,0.969058 3.64736,2.210712 0.91109,1.24177 1.23168,2.730864 1.01564,4.142065 -0.21691,1.411069 -0.96894,2.735863 -2.21037,3.647477 l 0.27419,0.373546" />
        <g
           transform="matrix(0.70545571,-0.51781822,0.51780205,0.7054441,51.051199,2.2389759)"
           id="g12066">
          <path
             inkscape:connector-curvature="0"
             id="path12062"
             style="fill:#a967ba;fill-opacity:1;fill-rule:nonzero;stroke:none;stroke-width:0.03527778"
             d="m 44.125508,80.856045 c 3.808942,0 6.897159,-3.088216 6.897159,-6.897511 0,-3.809295 -3.088217,-6.897512 -6.897159,-6.897512 -3.809648,0 -6.897512,3.088217 -6.897512,6.897512 0,3.809295 3.087864,6.897511 6.897512,6.897511" />
          <path
             inkscape:connector-curvature="0"
             id="path12064"
             style="fill:#8f45a8;fill-opacity:1;fill-rule:nonzero;stroke:none;stroke-width:0.03527778"
             d="m 44.125508,80.856045 v 0.529167 c 4.101747,-3.53e-4 7.425972,-3.324931 7.426325,-7.426678 -3.53e-4,-4.1021 -3.324578,-7.426678 -7.426325,-7.427031 -4.1021,3.53e-4 -7.426678,3.324931 -7.427031,7.427031 3.53e-4,4.101747 3.324931,7.426325 7.427031,7.426678 v -0.529167 -0.529519 c -1.760714,-3.53e-4 -3.349273,-0.712258 -4.503209,-1.865489 -1.15323,-1.153936 -1.864783,-2.742495 -1.865136,-4.502503 3.53e-4,-1.760361 0.711906,-3.34892 1.865136,-4.502856 1.153936,-1.153231 2.742495,-1.864783 4.503209,-1.865489 1.760008,7.06e-4 3.348567,0.712258 4.502503,1.865489 1.15323,1.153936 1.864783,2.742495 1.865136,4.502856 -3.53e-4,1.760008 -0.711906,3.348567 -1.865136,4.502503 -1.153936,1.153231 -2.742495,1.865136 -4.502503,1.865489 v 0.529519" />
        </g>
      </g>
      <path
         inkscape:connector-curvature="0"
         id="path12070"
         d="M 68.480836,61.319962 81.292863,47.845426"
         style="fill:none;stroke:#000000;stroke-width:0.565;stroke-linecap:butt;stroke-linejoin:miter;stroke-miterlimit:4;stroke-dasharray:none;stroke-opacity:1;marker-end:url(#marker931-3)"
         sodipodi:nodetypes="cc" />
      <g
         id="g12076"
         transform="matrix(0.87511979,0.01114637,-0.0111475,0.87511957,107.16446,-2.3936341)">
        <path
           d="m -43.941201,80.856045 c 3.809294,0 6.89737,-3.088216 6.89737,-6.897511 0,-3.809295 -3.088076,-6.897512 -6.89737,-6.897512 -3.80933,0 -6.897512,3.088217 -6.897512,6.897512 0,3.809295 3.088182,6.897511 6.897512,6.897511"
           style="fill:#6a78c4;fill-opacity:1;fill-rule:nonzero;stroke:none;stroke-width:0.03527778"
           id="path12072"
           inkscape:connector-curvature="0" />
        <path
           d="m -43.941201,80.856045 v 0.529167 c 4.101853,-3.53e-4 7.426396,-3.324931 7.426784,-7.426678 -3.88e-4,-4.1021 -3.324931,-7.426678 -7.426784,-7.427031 -4.101995,3.53e-4 -7.426538,3.324931 -7.426784,7.427031 2.46e-4,4.101747 3.324789,7.426325 7.426784,7.426678 v -0.529167 -0.529519 c -1.760185,-3.53e-4 -3.34892,-0.712258 -4.502892,-1.865489 -1.153124,-1.153936 -1.864889,-2.742495 -1.865171,-4.502503 2.82e-4,-1.760361 0.712047,-3.34892 1.865171,-4.502856 1.153972,-1.153231 2.742707,-1.864783 4.502892,-1.865489 1.760043,7.06e-4 3.348778,0.712258 4.502891,1.865489 1.152983,1.153936 1.864748,2.742495 1.86503,4.502856 -2.82e-4,1.760008 -0.712047,3.348567 -1.86503,4.502503 -1.154113,1.153231 -2.742848,1.865136 -4.502891,1.865489 v 0.529519"
           style="fill:#4c5cb3;fill-opacity:1;fill-rule:nonzero;stroke:none;stroke-width:0.03527778"
           id="path12074"
           inkscape:connector-curvature="0" />
      </g>
      <g
         id="g12082"
         transform="matrix(0.86496606,0.13267996,-0.13267991,0.8649663,49.257832,-23.265185)">
        <path
           d="m 35.072171,65.336644 c 3.809295,0 6.897512,-3.087864 6.897512,-6.897511 0,-3.809295 -3.088217,-6.897159 -6.897512,-6.897159 -3.808942,0 -6.897159,3.087864 -6.897159,6.897159 0,3.809647 3.088217,6.897511 6.897159,6.897511"
           style="fill:#56b342;fill-opacity:1;fill-rule:nonzero;stroke:none;stroke-width:0.03527778"
           id="path12078"
           inkscape:connector-curvature="0" />
        <path
           d="m 35.072171,65.336644 v 0.52952 c 4.1021,-3.53e-4 7.426678,-3.324931 7.427031,-7.427031 -3.53e-4,-4.101748 -3.324931,-7.426326 -7.427031,-7.426678 -4.101395,3.52e-4 -7.426325,3.32493 -7.426678,7.426678 3.53e-4,4.1021 3.325283,7.426678 7.426678,7.427031 v -0.52952 -0.529519 c -1.760008,0 -3.348567,-0.711906 -4.502503,-1.865136 -1.153231,-1.153936 -1.864783,-2.742495 -1.865136,-4.502856 3.53e-4,-1.760009 0.711905,-3.348567 1.865136,-4.502503 1.153936,-1.153584 2.742495,-1.865136 4.502503,-1.865489 1.760361,3.53e-4 3.349273,0.711905 4.502856,1.865489 1.153583,1.153936 1.865136,2.742494 1.865136,4.502503 0,1.760361 -0.711553,3.34892 -1.865136,4.502856 -1.153583,1.15323 -2.742495,1.865136 -4.502856,1.865136 v 0.529519"
           style="fill:#3b9c3b;fill-opacity:1;fill-rule:nonzero;stroke:none;stroke-width:0.03527778"
           id="path12080"
           inkscape:connector-curvature="0" />
      </g>
      <path
         sodipodi:open="true"
         style="fill:none;fill-opacity:1;fill-rule:nonzero;stroke:#000000;stroke-width:0.51300001;stroke-linecap:round;stroke-linejoin:miter;stroke-miterlimit:4;stroke-dasharray:none;stroke-dashoffset:0;stroke-opacity:1;paint-order:markers stroke fill"
         id="path12084"
         sodipodi:type="arc"
         sodipodi:cx="50.164719"
         sodipodi:cy="-60.011402"
         sodipodi:rx="9.5111532"
         sodipodi:ry="9.5111532"
         sodipodi:start="1.2868568"
         sodipodi:end="3.9116453"
         d="m 52.829169,-50.881082 a 9.5111532,9.5111532 0 0 1 -10.810776,-4.221205 9.5111532,9.5111532 0 0 1 1.318516,-11.530524"
         transform="rotate(74.006301)" />
      <path
         transform="rotate(74.006301)"
         d="m 53.831021,-47.406673 a 13.185863,13.185863 0 0 1 -14.987606,-5.8521 13.185863,13.185863 0 0 1 1.827935,-15.985433"
         sodipodi:end="3.9116453"
         sodipodi:start="1.2868568"
         sodipodi:ry="13.185863"
         sodipodi:rx="13.185863"
         sodipodi:cy="-60.064564"
         sodipodi:cx="50.137138"
         sodipodi:type="arc"
         id="path12086"
         style="fill:none;fill-opacity:1;fill-rule:nonzero;stroke:#000000;stroke-width:0.51300001;stroke-linecap:round;stroke-linejoin:miter;stroke-miterlimit:4;stroke-dasharray:none;stroke-dashoffset:0;stroke-opacity:1;paint-order:markers stroke fill"
         sodipodi:open="true" />
      <g
         transform="rotate(47.331923,178.78395,164.69251)"
         id="g12092">
        <path
           sodipodi:open="true"
           style="fill:none;fill-opacity:1;fill-rule:nonzero;stroke:#000000;stroke-width:0.51300001;stroke-linecap:round;stroke-linejoin:miter;stroke-miterlimit:4;stroke-dasharray:none;stroke-dashoffset:0;stroke-opacity:1;paint-order:markers stroke fill"
           id="path12088"
           sodipodi:type="arc"
           sodipodi:cx="107.14416"
           sodipodi:cy="-84.752838"
           sodipodi:rx="9.5111532"
           sodipodi:ry="9.5111532"
           sodipodi:start="1.2868568"
           sodipodi:end="3.9116453"
           d="m 109.80861,-75.622518 a 9.5111532,9.5111532 0 0 1 -10.810778,-4.221205 9.5111532,9.5111532 0 0 1 1.318518,-11.530524"
           transform="rotate(117.41753)" />
        <path
           transform="rotate(117.41753)"
           d="m 110.81046,-72.148109 a 13.185863,13.185863 0 0 1 -14.987606,-5.8521 13.185863,13.185863 0 0 1 1.827935,-15.985433"
           sodipodi:end="3.9116453"
           sodipodi:start="1.2868568"
           sodipodi:ry="13.185863"
           sodipodi:rx="13.185863"
           sodipodi:cy="-84.806"
           sodipodi:cx="107.11658"
           sodipodi:type="arc"
           id="path12090"
           style="fill:none;fill-opacity:1;fill-rule:nonzero;stroke:#000000;stroke-width:0.51300001;stroke-linecap:round;stroke-linejoin:miter;stroke-miterlimit:4;stroke-dasharray:none;stroke-dashoffset:0;stroke-opacity:1;paint-order:markers stroke fill"
           sodipodi:open="true" />
      </g>
      <g
         transform="matrix(0.64976242,-0.76013736,-0.76013736,-0.64976242,182.83245,164.50268)"
         id="g12098">
        <path
           sodipodi:open="true"
           style="fill:none;fill-opacity:1;fill-rule:nonzero;stroke:#000000;stroke-width:0.51300001;stroke-linecap:round;stroke-linejoin:miter;stroke-miterlimit:4;stroke-dasharray:none;stroke-dashoffset:0;stroke-opacity:1;paint-order:markers stroke fill"
           id="path12094"
           sodipodi:type="arc"
           sodipodi:cx="107.14416"
           sodipodi:cy="-84.752838"
           sodipodi:rx="9.5111532"
           sodipodi:ry="9.5111532"
           sodipodi:start="1.2868568"
           sodipodi:end="3.9116453"
           d="m 109.80861,-75.622518 a 9.5111532,9.5111532 0 0 1 -10.810778,-4.221205 9.5111532,9.5111532 0 0 1 1.318518,-11.530524"
           transform="rotate(117.41753)" />
        <path
           transform="rotate(117.41753)"
           d="m 110.81046,-72.148109 a 13.185863,13.185863 0 0 1 -14.987606,-5.8521 13.185863,13.185863 0 0 1 1.827935,-15.985433"
           sodipodi:end="3.9116453"
           sodipodi:start="1.2868568"
           sodipodi:ry="13.185863"
           sodipodi:rx="13.185863"
           sodipodi:cy="-84.806"
           sodipodi:cx="107.11658"
           sodipodi:type="arc"
           id="path12096"
           style="fill:none;fill-opacity:1;fill-rule:nonzero;stroke:#000000;stroke-width:0.51300001;stroke-linecap:round;stroke-linejoin:miter;stroke-miterlimit:4;stroke-dasharray:none;stroke-dashoffset:0;stroke-opacity:1;paint-order:markers stroke fill"
           sodipodi:open="true" />
      </g>
      <rect
         y="17.608376"
         x="57.722679"
         height="53.99316"
         width="53.99316"
         id="rect12100"
         style="fill:none;fill-opacity:0.48258709;stroke:#000000;stroke-width:0;stroke-miterlimit:4;stroke-dasharray:none;stroke-dashoffset:0;stroke-opacity:1" />
      <rect
         style="fill:none;fill-opacity:0.48258709;stroke:#000000;stroke-width:0;stroke-miterlimit:4;stroke-dasharray:none;stroke-dashoffset:0;stroke-opacity:1"
         id="rect12102"
         width="39.539181"
         height="39.539181"
         x="64.949669"
         y="24.835365" />
      <rect
         y="20.404112"
         x="61.19516"
         height="48.401688"
         width="47.048199"
         id="rect12104"
         style="fill:none;fill-opacity:0.48258709;stroke:#000000;stroke-width:0;stroke-miterlimit:4;stroke-dasharray:none;stroke-dashoffset:0;stroke-opacity:1" />
    </g>
    <g
       id="g1046">
      <g
         transform="rotate(45.079177,573.93251,437.01026)"
         id="g11972">
        <rect
           y="11.82187"
           x="51.135078"
           height="65.928856"
           width="65.928864"
           id="rect11906"
           style="fill:none;fill-opacity:0.48258709;stroke:#000000;stroke-width:0.63700002;stroke-miterlimit:4;stroke-dasharray:none;stroke-dashoffset:0;stroke-opacity:1"
           transform="rotate(-0.301766)"
           ry="22.46051" />
        <g
           transform="translate(-0.0842641,-0.41260115)"
           id="g11970">
          <path
             d="m 90.425883,49.143947 c -2.68705,1.97234 -3.26656,5.750035 -1.29411,8.437283 1.97247,2.687239 5.75014,3.26667 8.43719,1.29433 2.687527,-1.972703 3.266807,-5.750216 1.29435,-8.437454 -1.97247,-2.687259 -5.74991,-3.266861 -8.43743,-1.294159"
             style="fill:#eaa2a6;fill-opacity:1;fill-rule:nonzero;stroke:none;stroke-width:0.03087132"
             id="path11908"
             inkscape:connector-curvature="0" />
          <path
             d="m 90.425783,49.144048 -0.27401,-0.373302 c -2.89342,2.124209 -3.51705,6.19086 -1.39339,9.084595 2.12432,2.893621 6.19089,3.517581 9.08467,1.39387 2.893657,-2.12439 3.517527,-6.191222 1.39371,-9.085216 -2.12415,-2.893362 -6.19096,-3.517141 -9.08499,-1.393249 l 0.27401,0.373302 0.27418,0.373541 c 1.24228,-0.911476 2.73157,-1.231854 4.14276,-1.015844 1.41107,0.216871 2.7356,0.969055 3.64718,2.210461 0.91127,1.242018 1.23186,2.73112 1.01582,4.142317 -0.2169,1.411072 -0.96912,2.735613 -2.21086,3.647845 -1.24198,0.910865 -2.73108,1.231492 -4.14227,1.015482 -1.41107,-0.216881 -2.73559,-0.969065 -3.64736,-2.21072 -0.91108,-1.241769 -1.23167,-2.730861 -1.01563,-4.142058 0.2169,-1.411072 0.96893,-2.735872 2.21036,-3.647483 l -0.27418,-0.373541"
             style="fill:#e59393;fill-opacity:1;fill-rule:nonzero;stroke:none;stroke-width:0.03087132"
             id="path11910"
             inkscape:connector-curvature="0" />
          <path
             inkscape:connector-curvature="0"
             id="path11912"
             style="fill:#a8d89d;fill-opacity:1;fill-rule:nonzero;stroke:none;stroke-width:0.03087099"
             d="m 74.523672,41.323709 c 3.294921,0.505418 6.375821,-1.755736 6.881281,-5.050952 0.50542,-3.294912 -1.75609,-6.375555 -5.051007,-6.880972 -3.294604,-0.50537 -6.375504,1.755783 -6.880924,5.050695 -0.50546,3.295216 1.75604,6.375859 5.05065,6.881229" />
          <path
             inkscape:connector-curvature="0"
             id="path11914"
             style="fill:#9dce9a;fill-opacity:1;fill-rule:nonzero;stroke:none;stroke-width:0.03087099"
             d="m 74.523672,41.323709 -0.0703,0.458017 c 3.548231,0.543962 6.864991,-1.890582 7.409561,-5.438713 0.54391,-3.547921 -1.89063,-6.864673 -5.438767,-7.409244 -3.547614,-0.543869 -6.864674,1.890628 -7.409204,5.438455 -0.54396,3.548225 1.89089,6.865024 5.43841,7.409502 l 0.0703,-0.458017 0.0702,-0.458016 c -1.52234,-0.233517 -2.80194,-1.060062 -3.64704,-2.210671 -0.8444,-1.151127 -1.2491,-2.619585 -1.01584,-4.142285 0.23382,-1.522302 1.06006,-2.801942 2.21067,-3.647047 1.15117,-0.844707 2.61963,-1.249406 4.142024,-1.016194 1.522617,0.23387 2.802567,1.060156 3.647317,2.211024 0.8447,1.151173 1.2494,2.619631 1.01589,4.14198 -0.23357,1.522653 -1.05981,2.802294 -2.21072,3.647352 -1.15082,0.844448 -2.619637,1.249406 -4.142301,1.015841 l -0.0702,0.458016" />
          <g
             transform="rotate(-0.301777,-9607.4748,2812.1007)"
             id="g11920">
            <path
               d="m 108.35409,103.63399 c -2.6974,1.95816 -3.2968,5.73275 -1.33853,8.43035 1.95829,2.69759 5.73286,3.29691 8.43026,1.33875 2.69788,-1.95852 3.29705,-5.73293 1.33877,-8.43052 -1.95829,-2.69761 -5.73262,-3.2971 -8.4305,-1.33858"
               style="fill:#d64c53;fill-opacity:1;fill-rule:nonzero;stroke:none;stroke-width:0.03087132"
               id="path11916"
               inkscape:connector-curvature="0" />
            <path
               d="m 108.35399,103.63409 -0.27204,-0.37474 c -2.90456,2.10894 -3.5496,6.17225 -1.44122,9.07713 2.10905,2.90477 6.17228,3.55014 9.07721,1.4417 2.90481,-2.10912 3.55009,-6.17261 1.44154,-9.07775 -2.10888,-2.90451 -6.17235,-3.5497 -9.07753,-1.44108 l 0.27204,0.37474 0.27221,0.37498 c 1.24707,-0.90492 2.73802,-1.21745 4.14806,-0.99401 1.4099,0.2243 2.73045,0.98345 3.63548,2.22964 0.90472,1.2468 1.21746,2.73757 0.99399,4.14761 -0.22433,1.40991 -0.98351,2.73047 -2.23004,3.63615 -1.24676,0.90431 -2.73753,1.21709 -4.14756,0.99365 -1.40991,-0.22431 -2.73045,-0.98346 -3.63567,-2.2299 -0.90453,-1.24655 -1.21727,-2.73731 -0.9938,-4.14735 0.22433,-1.40991 0.98333,-2.73073 2.22954,-3.63579 l -0.27221,-0.37498"
               style="fill:#cd2e2f;fill-opacity:1;fill-rule:nonzero;stroke:none;stroke-width:0.03087132"
               id="path11918"
               inkscape:connector-curvature="0" />
          </g>
          <g
             id="g11932"
             transform="translate(-23.009309,0.22558146)">
            <path
               d="m 120.70569,39.943727 c 2.68704,-1.97234 3.26656,-5.750039 1.2941,-8.437283 -1.97247,-2.687245 -5.75015,-3.266675 -8.43719,-1.294335 -2.68754,1.972705 -3.2668,5.750222 -1.29434,8.437467 1.97246,2.687244 5.74989,3.266856 8.43743,1.294151"
               style="fill:#d2b0db;fill-opacity:1;fill-rule:nonzero;stroke:none;stroke-width:0.03087132"
               id="path11922"
               inkscape:connector-curvature="0" />
            <path
               d="m 120.70569,39.943727 0.274,0.373297 c 2.89342,-2.124208 3.51704,-6.190856 1.3934,-9.084592 -2.12433,-2.89362 -6.19089,-3.517579 -9.08468,-1.393869 -2.89366,2.124391 -3.51753,6.191222 -1.39371,9.085207 2.12415,2.893371 6.19096,3.517147 9.08499,1.393254 l -0.274,-0.373297 -0.27419,-0.373546 c -1.24228,0.91148 -2.73157,1.231856 -4.14276,1.015845 -1.41107,-0.216874 -2.7356,-0.969058 -3.64718,-2.210463 -0.91127,-1.242019 -1.23186,-2.731114 -1.01582,-4.142314 0.21691,-1.411069 0.96912,-2.735614 2.21086,-3.647842 1.24198,-0.910866 2.73108,-1.231491 4.14227,-1.01548 1.41107,0.216874 2.73559,0.969058 3.64736,2.210712 0.91109,1.24177 1.23168,2.730864 1.01564,4.142065 -0.21691,1.411069 -0.96894,2.735863 -2.21037,3.647477 l 0.27419,0.373546"
               style="fill:#c59fd2;fill-opacity:1;fill-rule:nonzero;stroke:none;stroke-width:0.03087132"
               id="path11924"
               inkscape:connector-curvature="0" />
            <g
               id="g11930"
               transform="matrix(0.70545571,-0.51781822,0.51780205,0.7054441,51.051199,2.2389759)">
              <path
                 d="m 44.125508,80.856045 c 3.808942,0 6.897159,-3.088216 6.897159,-6.897511 0,-3.809295 -3.088217,-6.897512 -6.897159,-6.897512 -3.809648,0 -6.897512,3.088217 -6.897512,6.897512 0,3.809295 3.087864,6.897511 6.897512,6.897511"
                 style="fill:#a967ba;fill-opacity:1;fill-rule:nonzero;stroke:none;stroke-width:0.03527778"
                 id="path11926"
                 inkscape:connector-curvature="0" />
              <path
                 d="m 44.125508,80.856045 v 0.529167 c 4.101747,-3.53e-4 7.425972,-3.324931 7.426325,-7.426678 -3.53e-4,-4.1021 -3.324578,-7.426678 -7.426325,-7.427031 -4.1021,3.53e-4 -7.426678,3.324931 -7.427031,7.427031 3.53e-4,4.101747 3.324931,7.426325 7.427031,7.426678 v -0.529167 -0.529519 c -1.760714,-3.53e-4 -3.349273,-0.712258 -4.503209,-1.865489 -1.15323,-1.153936 -1.864783,-2.742495 -1.865136,-4.502503 3.53e-4,-1.760361 0.711906,-3.34892 1.865136,-4.502856 1.153936,-1.153231 2.742495,-1.864783 4.503209,-1.865489 1.760008,7.06e-4 3.348567,0.712258 4.502503,1.865489 1.15323,1.153936 1.864783,2.742495 1.865136,4.502856 -3.53e-4,1.760008 -0.711906,3.348567 -1.865136,4.502503 -1.153936,1.153231 -2.742495,1.865136 -4.502503,1.865489 v 0.529519"
                 style="fill:#8f45a8;fill-opacity:1;fill-rule:nonzero;stroke:none;stroke-width:0.03527778"
                 id="path11928"
                 inkscape:connector-curvature="0" />
            </g>
          </g>
          <path
             sodipodi:nodetypes="cc"
             style="fill:none;stroke:#000000;stroke-width:0.565;stroke-linecap:butt;stroke-linejoin:miter;stroke-miterlimit:4;stroke-dasharray:none;stroke-opacity:1;marker-end:url(#marker931-3)"
             d="M 68.480836,61.319962 81.292863,47.845426"
             id="path11934"
             inkscape:connector-curvature="0" />
          <g
             transform="matrix(0.87511979,0.01114637,-0.0111475,0.87511957,107.16446,-2.3936341)"
             id="g11940">
            <path
               inkscape:connector-curvature="0"
               id="path11936"
               style="fill:#6a78c4;fill-opacity:1;fill-rule:nonzero;stroke:none;stroke-width:0.03527778"
               d="m -43.941201,80.856045 c 3.809294,0 6.89737,-3.088216 6.89737,-6.897511 0,-3.809295 -3.088076,-6.897512 -6.89737,-6.897512 -3.80933,0 -6.897512,3.088217 -6.897512,6.897512 0,3.809295 3.088182,6.897511 6.897512,6.897511" />
            <path
               inkscape:connector-curvature="0"
               id="path11938"
               style="fill:#4c5cb3;fill-opacity:1;fill-rule:nonzero;stroke:none;stroke-width:0.03527778"
               d="m -43.941201,80.856045 v 0.529167 c 4.101853,-3.53e-4 7.426396,-3.324931 7.426784,-7.426678 -3.88e-4,-4.1021 -3.324931,-7.426678 -7.426784,-7.427031 -4.101995,3.53e-4 -7.426538,3.324931 -7.426784,7.427031 2.46e-4,4.101747 3.324789,7.426325 7.426784,7.426678 v -0.529167 -0.529519 c -1.760185,-3.53e-4 -3.34892,-0.712258 -4.502892,-1.865489 -1.153124,-1.153936 -1.864889,-2.742495 -1.865171,-4.502503 2.82e-4,-1.760361 0.712047,-3.34892 1.865171,-4.502856 1.153972,-1.153231 2.742707,-1.864783 4.502892,-1.865489 1.760043,7.06e-4 3.348778,0.712258 4.502891,1.865489 1.152983,1.153936 1.864748,2.742495 1.86503,4.502856 -2.82e-4,1.760008 -0.712047,3.348567 -1.86503,4.502503 -1.154113,1.153231 -2.742848,1.865136 -4.502891,1.865489 v 0.529519" />
          </g>
          <g
             transform="matrix(0.86496606,0.13267996,-0.13267991,0.8649663,49.257832,-23.265185)"
             id="g11946">
            <path
               inkscape:connector-curvature="0"
               id="path11942"
               style="fill:#56b342;fill-opacity:1;fill-rule:nonzero;stroke:none;stroke-width:0.03527778"
               d="m 35.072171,65.336644 c 3.809295,0 6.897512,-3.087864 6.897512,-6.897511 0,-3.809295 -3.088217,-6.897159 -6.897512,-6.897159 -3.808942,0 -6.897159,3.087864 -6.897159,6.897159 0,3.809647 3.088217,6.897511 6.897159,6.897511" />
            <path
               inkscape:connector-curvature="0"
               id="path11944"
               style="fill:#3b9c3b;fill-opacity:1;fill-rule:nonzero;stroke:none;stroke-width:0.03527778"
               d="m 35.072171,65.336644 v 0.52952 c 4.1021,-3.53e-4 7.426678,-3.324931 7.427031,-7.427031 -3.53e-4,-4.101748 -3.324931,-7.426326 -7.427031,-7.426678 -4.101395,3.52e-4 -7.426325,3.32493 -7.426678,7.426678 3.53e-4,4.1021 3.325283,7.426678 7.426678,7.427031 v -0.52952 -0.529519 c -1.760008,0 -3.348567,-0.711906 -4.502503,-1.865136 -1.153231,-1.153936 -1.864783,-2.742495 -1.865136,-4.502856 3.53e-4,-1.760009 0.711905,-3.348567 1.865136,-4.502503 1.153936,-1.153584 2.742495,-1.865136 4.502503,-1.865489 1.760361,3.53e-4 3.349273,0.711905 4.502856,1.865489 1.153583,1.153936 1.865136,2.742494 1.865136,4.502503 0,1.760361 -0.711553,3.34892 -1.865136,4.502856 -1.153583,1.15323 -2.742495,1.865136 -4.502856,1.865136 v 0.529519" />
          </g>
          <path
             transform="rotate(74.006301)"
             d="m 52.829169,-50.881082 a 9.5111532,9.5111532 0 0 1 -10.810776,-4.221205 9.5111532,9.5111532 0 0 1 1.318516,-11.530524"
             sodipodi:end="3.9116453"
             sodipodi:start="1.2868568"
             sodipodi:ry="9.5111532"
             sodipodi:rx="9.5111532"
             sodipodi:cy="-60.011402"
             sodipodi:cx="50.164719"
             sodipodi:type="arc"
             id="path11948"
             style="fill:none;fill-opacity:1;fill-rule:nonzero;stroke:#000000;stroke-width:0.51300001;stroke-linecap:round;stroke-linejoin:miter;stroke-miterlimit:4;stroke-dasharray:none;stroke-dashoffset:0;stroke-opacity:1;paint-order:markers stroke fill"
             sodipodi:open="true" />
          <path
             sodipodi:open="true"
             style="fill:none;fill-opacity:1;fill-rule:nonzero;stroke:#000000;stroke-width:0.51300001;stroke-linecap:round;stroke-linejoin:miter;stroke-miterlimit:4;stroke-dasharray:none;stroke-dashoffset:0;stroke-opacity:1;paint-order:markers stroke fill"
             id="path11950"
             sodipodi:type="arc"
             sodipodi:cx="50.137138"
             sodipodi:cy="-60.064564"
             sodipodi:rx="13.185863"
             sodipodi:ry="13.185863"
             sodipodi:start="1.2868568"
             sodipodi:end="3.9116453"
             d="m 53.831021,-47.406673 a 13.185863,13.185863 0 0 1 -14.987606,-5.8521 13.185863,13.185863 0 0 1 1.827935,-15.985433"
             transform="rotate(74.006301)" />
          <g
             id="g11956"
             transform="rotate(47.331923,178.78395,164.69251)">
            <path
               transform="rotate(117.41753)"
               d="m 109.80861,-75.622518 a 9.5111532,9.5111532 0 0 1 -10.810778,-4.221205 9.5111532,9.5111532 0 0 1 1.318518,-11.530524"
               sodipodi:end="3.9116453"
               sodipodi:start="1.2868568"
               sodipodi:ry="9.5111532"
               sodipodi:rx="9.5111532"
               sodipodi:cy="-84.752838"
               sodipodi:cx="107.14416"
               sodipodi:type="arc"
               id="path11952"
               style="fill:none;fill-opacity:1;fill-rule:nonzero;stroke:#000000;stroke-width:0.51300001;stroke-linecap:round;stroke-linejoin:miter;stroke-miterlimit:4;stroke-dasharray:none;stroke-dashoffset:0;stroke-opacity:1;paint-order:markers stroke fill"
               sodipodi:open="true" />
            <path
               sodipodi:open="true"
               style="fill:none;fill-opacity:1;fill-rule:nonzero;stroke:#000000;stroke-width:0.51300001;stroke-linecap:round;stroke-linejoin:miter;stroke-miterlimit:4;stroke-dasharray:none;stroke-dashoffset:0;stroke-opacity:1;paint-order:markers stroke fill"
               id="path11954"
               sodipodi:type="arc"
               sodipodi:cx="107.11658"
               sodipodi:cy="-84.806"
               sodipodi:rx="13.185863"
               sodipodi:ry="13.185863"
               sodipodi:start="1.2868568"
               sodipodi:end="3.9116453"
               d="m 110.81046,-72.148109 a 13.185863,13.185863 0 0 1 -14.987606,-5.8521 13.185863,13.185863 0 0 1 1.827935,-15.985433"
               transform="rotate(117.41753)" />
          </g>
          <g
             id="g11962"
             transform="matrix(0.64976242,-0.76013736,-0.76013736,-0.64976242,182.83245,164.50268)">
            <path
               transform="rotate(117.41753)"
               d="m 109.80861,-75.622518 a 9.5111532,9.5111532 0 0 1 -10.810778,-4.221205 9.5111532,9.5111532 0 0 1 1.318518,-11.530524"
               sodipodi:end="3.9116453"
               sodipodi:start="1.2868568"
               sodipodi:ry="9.5111532"
               sodipodi:rx="9.5111532"
               sodipodi:cy="-84.752838"
               sodipodi:cx="107.14416"
               sodipodi:type="arc"
               id="path11958"
               style="fill:none;fill-opacity:1;fill-rule:nonzero;stroke:#000000;stroke-width:0.51300001;stroke-linecap:round;stroke-linejoin:miter;stroke-miterlimit:4;stroke-dasharray:none;stroke-dashoffset:0;stroke-opacity:1;paint-order:markers stroke fill"
               sodipodi:open="true" />
            <path
               sodipodi:open="true"
               style="fill:none;fill-opacity:1;fill-rule:nonzero;stroke:#000000;stroke-width:0.51300001;stroke-linecap:round;stroke-linejoin:miter;stroke-miterlimit:4;stroke-dasharray:none;stroke-dashoffset:0;stroke-opacity:1;paint-order:markers stroke fill"
               id="path11960"
               sodipodi:type="arc"
               sodipodi:cx="107.11658"
               sodipodi:cy="-84.806"
               sodipodi:rx="13.185863"
               sodipodi:ry="13.185863"
               sodipodi:start="1.2868568"
               sodipodi:end="3.9116453"
               d="m 110.81046,-72.148109 a 13.185863,13.185863 0 0 1 -14.987606,-5.8521 13.185863,13.185863 0 0 1 1.827935,-15.985433"
               transform="rotate(117.41753)" />
          </g>
          <rect
             style="fill:none;fill-opacity:0.48258709;stroke:#000000;stroke-width:0;stroke-miterlimit:4;stroke-dasharray:none;stroke-dashoffset:0;stroke-opacity:1"
             id="rect11964"
             width="53.99316"
             height="53.99316"
             x="57.722679"
             y="17.608376" />
          <rect
             y="24.835365"
             x="64.949669"
             height="39.539181"
             width="39.539181"
             id="rect11966"
             style="fill:none;fill-opacity:0.48258709;stroke:#000000;stroke-width:0;stroke-miterlimit:4;stroke-dasharray:none;stroke-dashoffset:0;stroke-opacity:1" />
          <rect
             style="fill:none;fill-opacity:0.48258709;stroke:#000000;stroke-width:0;stroke-miterlimit:4;stroke-dasharray:none;stroke-dashoffset:0;stroke-opacity:1"
             id="rect11968"
             width="47.048199"
             height="48.401688"
             x="61.19516"
             y="20.404112" />
        </g>
      </g>
      <text
         id="text996"
         y="-121.05716"
         x="460.43729"
         style="font-style:normal;font-weight:normal;font-size:24.09442139px;line-height:1.25;font-family:sans-serif;letter-spacing:0px;word-spacing:0px;fill:#000000;fill-opacity:1;stroke:none;stroke-width:0.60236049"
         xml:space="preserve"><tspan
           style="font-style:normal;font-variant:normal;font-weight:normal;font-stretch:normal;font-family:'Tamil MN';-inkscape-font-specification:'Tamil MN';stroke-width:0.60236049"
           y="-121.05716"
           x="460.43729"
           id="tspan994"
           sodipodi:role="line">MolSim</tspan></text>
    </g>
    <text
       id="text1000"
       y="-124.74198"
       x="257.8233"
       style="font-style:normal;font-weight:normal;font-size:24.09442139px;line-height:1.25;font-family:sans-serif;letter-spacing:0px;word-spacing:0px;fill:#000000;fill-opacity:1;stroke:none;stroke-width:0.60236049"
       xml:space="preserve"><tspan
         style="font-style:normal;font-variant:normal;font-weight:normal;font-stretch:normal;font-family:'Tamil MN';-inkscape-font-specification:'Tamil MN';stroke-width:0.60236049"
         y="-124.74198"
         x="257.8233"
         id="tspan998"
         sodipodi:role="line">MolSim</tspan></text>
    <text
       xml:space="preserve"
       style="font-style:normal;font-weight:normal;font-size:24.09442139px;line-height:1.25;font-family:sans-serif;letter-spacing:0px;word-spacing:0px;fill:#000000;fill-opacity:1;stroke:none;stroke-width:0.60236049"
       x="251.91661"
       y="53.333668"
       id="text1004"><tspan
         sodipodi:role="line"
         id="tspan1002"
         x="251.91661"
         y="53.333668"
         style="font-style:normal;font-variant:normal;font-weight:normal;font-stretch:normal;font-family:'Tamil MN';-inkscape-font-specification:'Tamil MN';stroke-width:0.60236049">MolSim</tspan></text>
    <text
       xml:space="preserve"
       style="font-style:normal;font-weight:normal;font-size:24.09442139px;line-height:1.25;font-family:sans-serif;letter-spacing:0px;word-spacing:0px;fill:#000000;fill-opacity:1;stroke:none;stroke-width:0.60236049"
       x="457.80582"
       y="51.890907"
       id="text1008"><tspan
         sodipodi:role="line"
         id="tspan1006"
         x="457.80582"
         y="51.890907"
         style="font-style:normal;font-variant:normal;font-weight:normal;font-stretch:normal;font-family:'Tamil MN';-inkscape-font-specification:'Tamil MN';stroke-width:0.60236049">MolSim</tspan></text>
  </g>
</svg>
