<?xml version="1.0" encoding="UTF-8" standalone="no"?>
<!-- Created with Inkscape (http://www.inkscape.org/) -->

<svg
   xmlns:dc="http://purl.org/dc/elements/1.1/"
   xmlns:cc="http://creativecommons.org/ns#"
   xmlns:rdf="http://www.w3.org/1999/02/22-rdf-syntax-ns#"
   xmlns:svg="http://www.w3.org/2000/svg"
   xmlns="http://www.w3.org/2000/svg"
   xmlns:sodipodi="http://sodipodi.sourceforge.net/DTD/sodipodi-0.dtd"
   xmlns:inkscape="http://www.inkscape.org/namespaces/inkscape"
   width="97.692352mm"
   height="64.183205mm"
   viewBox="0 0 97.692352 64.183205"
   version="1.1"
   id="svg8"
   inkscape:version="0.92.5 (2060ec1f9f, 2020-04-08)"
   sodipodi:docname="collisions.svg">
  <defs
     id="defs2">
    <marker
       inkscape:isstock="true"
       style="overflow:visible"
       id="marker931"
       refX="0"
       refY="0"
       orient="auto"
       inkscape:stockid="Arrow2Mend">
      <path
         transform="scale(-0.6)"
         d="M 8.7185878,4.0337352 -2.2072895,0.01601326 8.7185884,-4.0017078 c -1.7454984,2.3720609 -1.7354408,5.6174519 -6e-7,8.035443 z"
         style="fill:#000000;fill-opacity:1;fill-rule:evenodd;stroke:#000000;stroke-width:0.625;stroke-linejoin:round;stroke-opacity:1"
         id="path929"
         inkscape:connector-curvature="0" />
    </marker>
    <marker
       inkscape:isstock="true"
       style="overflow:visible"
       id="marker904"
       refX="0"
       refY="0"
       orient="auto"
       inkscape:stockid="Arrow2Mend">
      <path
         transform="scale(-0.6)"
         d="M 8.7185878,4.0337352 -2.2072895,0.01601326 8.7185884,-4.0017078 c -1.7454984,2.3720609 -1.7354408,5.6174519 -6e-7,8.035443 z"
         style="fill:#000000;fill-opacity:1;fill-rule:evenodd;stroke:#000000;stroke-width:0.625;stroke-linejoin:round;stroke-opacity:1"
         id="path902"
         inkscape:connector-curvature="0" />
    </marker>
    <marker
       inkscape:stockid="Arrow2Mend"
       orient="auto"
       refY="0"
       refX="0"
       id="marker4712"
       style="overflow:visible"
       inkscape:isstock="true"
       inkscape:collect="always">
      <path
         id="path4710"
         style="fill:#000000;fill-opacity:1;fill-rule:evenodd;stroke:#000000;stroke-width:0.625;stroke-linejoin:round;stroke-opacity:1"
         d="M 8.7185878,4.0337352 -2.2072895,0.01601326 8.7185884,-4.0017078 c -1.7454984,2.3720609 -1.7354408,5.6174519 -6e-7,8.035443 z"
         transform="scale(-0.6)"
         inkscape:connector-curvature="0" />
    </marker>
    <marker
       inkscape:stockid="Arrow2Mend"
       orient="auto"
       refY="0"
       refX="0"
       id="marker1003"
       style="overflow:visible"
       inkscape:isstock="true">
      <path
         id="path1001"
         style="fill:#000000;fill-opacity:1;fill-rule:evenodd;stroke:#000000;stroke-width:0.625;stroke-linejoin:round;stroke-opacity:1"
         d="M 8.7185878,4.0337352 -2.2072895,0.01601326 8.7185884,-4.0017078 c -1.7454984,2.3720609 -1.7354408,5.6174519 -6e-7,8.035443 z"
         transform="scale(-0.6)"
         inkscape:connector-curvature="0" />
    </marker>
    <marker
       inkscape:stockid="Arrow1Lend"
       orient="auto"
       refY="0"
       refX="0"
       id="Arrow1Lend"
       style="overflow:visible"
       inkscape:isstock="true">
      <path
         id="path867"
         d="M 0,0 5,-5 -12.5,0 5,5 Z"
         style="fill:#000000;fill-opacity:1;fill-rule:evenodd;stroke:#000000;stroke-width:1.00000003pt;stroke-opacity:1"
         transform="matrix(-0.8,0,0,-0.8,-10,0)"
         inkscape:connector-curvature="0" />
    </marker>
  </defs>
  <sodipodi:namedview
     id="base"
     pagecolor="#ffffff"
     bordercolor="#666666"
     borderopacity="1.0"
     inkscape:pageopacity="0.0"
     inkscape:pageshadow="2"
     inkscape:zoom="1.1547728"
     inkscape:cx="35.778282"
     inkscape:cy="78.618842"
     inkscape:document-units="mm"
     inkscape:current-layer="layer1"
     showgrid="false"
     inkscape:window-width="1880"
     inkscape:window-height="1055"
     inkscape:window-x="40"
     inkscape:window-y="0"
     inkscape:window-maximized="1"
     fit-margin-top="0"
     fit-margin-left="0"
     fit-margin-right="0"
     fit-margin-bottom="0" />
  <metadata
     id="metadata5">
    <rdf:RDF>
      <cc:Work
         rdf:about="">
        <dc:format>image/svg+xml</dc:format>
        <dc:type
           rdf:resource="http://purl.org/dc/dcmitype/StillImage" />
        <dc:title></dc:title>
      </cc:Work>
    </rdf:RDF>
  </metadata>
  <g
     inkscape:label="Layer 1"
     inkscape:groupmode="layer"
     id="layer1"
     transform="translate(-67.871761,-81.812325)">
    <flowRoot
       xml:space="preserve"
       id="flowRoot4825"
       style="font-style:normal;font-weight:normal;font-size:16px;line-height:1.25;font-family:sans-serif;letter-spacing:0px;word-spacing:0px;fill:#000000;fill-opacity:1;stroke:none"><flowRegion
         id="flowRegion4827"><rect
           id="rect4829"
           width="486.99423"
           height="331.26166"
           x="221.72095"
           y="296.34518" /></flowRegion><flowPara
         id="flowPara4831" /></flowRoot>    <g
       id="g1070"
       transform="translate(1.0238303)">
      <g
         transform="rotate(-45,85.58017,28.767161)"
         id="g1036">
        <path
           inkscape:connector-curvature="0"
           id="path913"
           d="M 50.263339,103.91004 V 91.163865"
           style="fill:none;stroke:#000000;stroke-width:0.565;stroke-linecap:butt;stroke-linejoin:miter;stroke-miterlimit:4;stroke-dasharray:none;stroke-opacity:1;marker-end:url(#marker931)"
           sodipodi:nodetypes="cc" />
        <path
           d="m 51.204347,103.45242 c -3.291978,-0.52272 -6.384856,1.72248 -6.907635,5.01468 -0.522771,3.2922 1.722477,6.38501 5.014448,6.90773 3.292579,0.52281 6.38516,-1.72243 6.907938,-5.01463 0.522779,-3.29221 -1.722172,-6.38497 -5.014751,-6.90778"
           style="fill:#d64c53;fill-opacity:1;fill-rule:nonzero;stroke:none;stroke-width:0.03087132"
           id="path915"
           inkscape:connector-curvature="0" />
        <path
           d="m 51.204211,103.45242 0.07262,-0.45734 c -3.54508,-0.56259 -6.874387,1.85449 -7.437597,5.3994 -0.562659,3.54531 1.854133,6.87479 5.399121,7.43799 3.545384,0.56264 6.874987,-1.8544 7.438254,-5.39961 0.562602,-3.545 -1.854487,-6.87453 -5.399778,-7.43778 l -0.07262,0.45734 -0.07267,0.45763 c 1.521687,0.24194 2.79694,1.07521 3.635993,2.23025 0.838346,1.15556 1.235315,2.62613 0.994079,4.14727 -0.241887,1.52135 -1.07488,2.79663 -2.229946,3.63566 -1.155582,0.83833 -2.626181,1.23529 -4.148023,0.99427 -1.521036,-0.24215 -2.796339,-1.07511 -3.635384,-2.23015 -0.838346,-1.15557 -1.235309,-2.62613 -0.99403,-4.14759 0.241845,-1.52104 1.074831,-2.79631 2.229897,-3.63534 1.155582,-0.83833 2.626237,-1.2356 4.147414,-0.99437 l 0.07267,-0.45763"
           style="fill:#cd2e2f;fill-opacity:1;fill-rule:nonzero;stroke:none;stroke-width:0.03087132"
           id="path917"
           inkscape:connector-curvature="0" />
      </g>
      <g
         transform="rotate(-45,164.4178,140.20994)"
         id="g1031">
        <g
           id="g1047">
          <path
             inkscape:connector-curvature="0"
             id="path4708"
             d="m 165.23105,104.89634 v 12.01985"
             style="fill:none;stroke:#000000;stroke-width:0.565;stroke-linecap:butt;stroke-linejoin:miter;stroke-miterlimit:4;stroke-dasharray:none;stroke-opacity:1;marker-end:url(#marker4712)"
             sodipodi:nodetypes="cc" />
          <g
             transform="matrix(0.86427447,0.13723376,-0.13723688,0.86425481,137.25006,29.41824)"
             id="g980">
            <path
               inkscape:connector-curvature="0"
               id="path920"
               style="fill:#a967ba;fill-opacity:1;fill-rule:nonzero;stroke:none;stroke-width:0.03527778"
               d="m 44.125508,80.856045 c 3.808942,0 6.897159,-3.088216 6.897159,-6.897511 0,-3.809295 -3.088217,-6.897512 -6.897159,-6.897512 -3.809648,0 -6.897512,3.088217 -6.897512,6.897512 0,3.809295 3.087864,6.897511 6.897512,6.897511" />
            <path
               inkscape:connector-curvature="0"
               id="path922"
               style="fill:#8f45a8;fill-opacity:1;fill-rule:nonzero;stroke:none;stroke-width:0.03527778"
               d="m 44.125508,80.856045 v 0.529167 c 4.101747,-3.53e-4 7.425972,-3.324931 7.426325,-7.426678 -3.53e-4,-4.1021 -3.324578,-7.426678 -7.426325,-7.427031 -4.1021,3.53e-4 -7.426678,3.324931 -7.427031,7.427031 3.53e-4,4.101747 3.324931,7.426325 7.427031,7.426678 v -0.529167 -0.529519 c -1.760714,-3.53e-4 -3.349273,-0.712258 -4.503209,-1.865489 -1.15323,-1.153936 -1.864783,-2.742495 -1.865136,-4.502503 3.53e-4,-1.760361 0.711906,-3.34892 1.865136,-4.502856 1.153936,-1.153231 2.742495,-1.864783 4.503209,-1.865489 1.760008,7.06e-4 3.348567,0.712258 4.502503,1.865489 1.15323,1.153936 1.864783,2.742495 1.865136,4.502856 -3.53e-4,1.760008 -0.711906,3.348567 -1.865136,4.502503 -1.153936,1.153231 -2.742495,1.865136 -4.502503,1.865489 v 0.529519" />
          </g>
        </g>
      </g>
      <g
         transform="matrix(0.67488923,0.5572104,-0.55721114,0.67488834,166.92075,85.34007)"
         id="g968">
        <path
           inkscape:connector-curvature="0"
           id="path908"
           style="fill:#6a78c4;fill-opacity:1;fill-rule:nonzero;stroke:none;stroke-width:0.03527778"
           d="m -43.941201,80.856045 c 3.809294,0 6.89737,-3.088216 6.89737,-6.897511 0,-3.809295 -3.088076,-6.897512 -6.89737,-6.897512 -3.80933,0 -6.897512,3.088217 -6.897512,6.897512 0,3.809295 3.088182,6.897511 6.897512,6.897511" />
        <path
           inkscape:connector-curvature="0"
           id="path910"
           style="fill:#4c5cb3;fill-opacity:1;fill-rule:nonzero;stroke:none;stroke-width:0.03527778"
           d="m -43.941201,80.856045 v 0.529167 c 4.101853,-3.53e-4 7.426396,-3.324931 7.426784,-7.426678 -3.88e-4,-4.1021 -3.324931,-7.426678 -7.426784,-7.427031 -4.101995,3.53e-4 -7.426538,3.324931 -7.426784,7.427031 2.46e-4,4.101747 3.324789,7.426325 7.426784,7.426678 v -0.529167 -0.529519 c -1.760185,-3.53e-4 -3.34892,-0.712258 -4.502892,-1.865489 -1.153124,-1.153936 -1.864889,-2.742495 -1.865171,-4.502503 2.82e-4,-1.760361 0.712047,-3.34892 1.865171,-4.502856 1.153972,-1.153231 2.742707,-1.864783 4.502892,-1.865489 1.760043,7.06e-4 3.348778,0.712258 4.502891,1.865489 1.152983,1.153936 1.864748,2.742495 1.86503,4.502856 -2.82e-4,1.760008 -0.712047,3.348567 -1.86503,4.502503 -1.154113,1.153231 -2.742848,1.865136 -4.502891,1.865489 v 0.529519" />
      </g>
      <path
         sodipodi:open="true"
         style="fill:none;fill-opacity:1;fill-rule:nonzero;stroke:#000000;stroke-width:0.51300001;stroke-linecap:round;stroke-linejoin:miter;stroke-miterlimit:4;stroke-dasharray:none;stroke-dashoffset:0;stroke-opacity:1;paint-order:markers stroke fill"
         id="path834"
         sodipodi:type="arc"
         sodipodi:cx="138.72421"
         sodipodi:cy="46.605484"
         sodipodi:rx="9.5111532"
         sodipodi:ry="9.5111532"
         sodipodi:start="1.2868568"
         sodipodi:end="3.9116453"
         d="M 141.38866,55.735804 A 9.5111532,9.5111532 0 0 1 130.57789,51.514599 9.5111532,9.5111532 0 0 1 131.8964,39.984076"
         transform="rotate(30.60601)" />
      <path
         transform="rotate(30.60601)"
         d="m 142.41809,59.263375 a 13.185863,13.185863 0 0 1 -14.9876,-5.8521 13.185863,13.185863 0 0 1 1.82793,-15.985433"
         sodipodi:end="3.9116453"
         sodipodi:start="1.2868568"
         sodipodi:ry="13.185863"
         sodipodi:rx="13.185863"
         sodipodi:cy="46.605484"
         sodipodi:cx="138.72421"
         sodipodi:type="arc"
         id="path836"
         style="fill:none;fill-opacity:1;fill-rule:nonzero;stroke:#000000;stroke-width:0.51300001;stroke-linecap:round;stroke-linejoin:miter;stroke-miterlimit:4;stroke-dasharray:none;stroke-dashoffset:0;stroke-opacity:1;paint-order:markers stroke fill"
         sodipodi:open="true" />
      <g
         transform="translate(11.664288,20.524916)"
         id="g4796">
        <g
           id="g976"
           transform="matrix(0.86425524,0.13723387,-0.13723383,0.86425548,92.73542,20.227652)">
          <path
             d="m 35.072171,65.336644 c 3.809295,0 6.897512,-3.087864 6.897512,-6.897511 0,-3.809295 -3.088217,-6.897159 -6.897512,-6.897159 -3.808942,0 -6.897159,3.087864 -6.897159,6.897159 0,3.809647 3.088217,6.897511 6.897159,6.897511"
             style="fill:#56b342;fill-opacity:1;fill-rule:nonzero;stroke:none;stroke-width:0.03527778"
             id="path916"
             inkscape:connector-curvature="0" />
          <path
             d="m 35.072171,65.336644 v 0.52952 c 4.1021,-3.53e-4 7.426678,-3.324931 7.427031,-7.427031 -3.53e-4,-4.101748 -3.324931,-7.426326 -7.427031,-7.426678 -4.101395,3.52e-4 -7.426325,3.32493 -7.426678,7.426678 3.53e-4,4.1021 3.325283,7.426678 7.426678,7.427031 v -0.52952 -0.529519 c -1.760008,0 -3.348567,-0.711906 -4.502503,-1.865136 -1.153231,-1.153936 -1.864783,-2.742495 -1.865136,-4.502856 3.53e-4,-1.760009 0.711905,-3.348567 1.865136,-4.502503 1.153936,-1.153584 2.742495,-1.865136 4.502503,-1.865489 1.760361,3.53e-4 3.349273,0.711905 4.502856,1.865489 1.153583,1.153936 1.865136,2.742494 1.865136,4.502503 0,1.760361 -0.711553,3.34892 -1.865136,4.502856 -1.153583,1.15323 -2.742495,1.865136 -4.502856,1.865136 v 0.529519"
             style="fill:#3b9c3b;fill-opacity:1;fill-rule:nonzero;stroke:none;stroke-width:0.03527778"
             id="path918"
             inkscape:connector-curvature="0" />
        </g>
        <path
           sodipodi:open="true"
           style="fill:none;fill-opacity:1;fill-rule:nonzero;stroke:#000000;stroke-width:0.51300001;stroke-linecap:round;stroke-linejoin:miter;stroke-miterlimit:4;stroke-dasharray:none;stroke-dashoffset:0;stroke-opacity:1;paint-order:markers stroke fill"
           id="path842"
           sodipodi:type="arc"
           sodipodi:cx="13.297962"
           sodipodi:cy="-136.65498"
           sodipodi:rx="9.5111532"
           sodipodi:ry="9.5111532"
           sodipodi:start="1.2868568"
           sodipodi:end="3.9116453"
           d="m 15.962413,-127.52466 a 9.5111532,9.5111532 0 0 1 -10.8107766,-4.22121 9.5111532,9.5111532 0 0 1 1.318516,-11.53052"
           transform="rotate(117.41753)" />
        <path
           transform="rotate(117.41753)"
           d="m 16.964272,-124.05025 a 13.185863,13.185863 0 0 1 -14.9876057,-5.8521 13.185863,13.185863 0 0 1 1.8279351,-15.98544"
           sodipodi:end="3.9116453"
           sodipodi:start="1.2868568"
           sodipodi:ry="13.185863"
           sodipodi:rx="13.185863"
           sodipodi:cy="-136.70815"
           sodipodi:cx="13.27039"
           sodipodi:type="arc"
           id="path844"
           style="fill:none;fill-opacity:1;fill-rule:nonzero;stroke:#000000;stroke-width:0.51300001;stroke-linecap:round;stroke-linejoin:miter;stroke-miterlimit:4;stroke-dasharray:none;stroke-dashoffset:0;stroke-opacity:1;paint-order:markers stroke fill"
           sodipodi:open="true" />
      </g>
    </g>
    <text
       xml:space="preserve"
       style="font-style:normal;font-weight:normal;font-size:16.49958229px;line-height:1.25;font-family:sans-serif;letter-spacing:0px;word-spacing:0px;fill:#000000;fill-opacity:1;stroke:none;stroke-width:1.03122389"
       x="70.13562"
       y="142.38625"
       id="text4823"><tspan
         sodipodi:role="line"
         id="tspan4821"
         x="70.13562"
         y="142.38625"
         style="font-style:normal;font-variant:normal;font-weight:bold;font-stretch:normal;font-family:'Tamil MN';-inkscape-font-specification:'Tamil MN Bold';stroke-width:1.03122389">juliaMolSim</tspan></text>
  </g>
</svg>
