<?xml version="1.0" encoding="UTF-8" standalone="no"?>
<!-- Created with Inkscape (http://www.inkscape.org/) -->

<svg
   xmlns:dc="http://purl.org/dc/elements/1.1/"
   xmlns:cc="http://creativecommons.org/ns#"
   xmlns:rdf="http://www.w3.org/1999/02/22-rdf-syntax-ns#"
   xmlns:svg="http://www.w3.org/2000/svg"
   xmlns="http://www.w3.org/2000/svg"
   xmlns:sodipodi="http://sodipodi.sourceforge.net/DTD/sodipodi-0.dtd"
   xmlns:inkscape="http://www.inkscape.org/namespaces/inkscape"
   width="112.07034mm"
   height="30.149466mm"
   viewBox="0 0 112.07035 30.149465"
   version="1.1"
   id="svg8"
   inkscape:version="0.92.5 (2060ec1f9f, 2020-04-08)"
   sodipodi:docname="horizontal_light.svg"
   inkscape:export-filename="/home/leandro/Downloads/JuliaMolSim_logo/collision_diamond/horizontal_light.png"
   inkscape:export-xdpi="300"
   inkscape:export-ydpi="300">
  <defs
     id="defs2">
    <marker
       inkscape:stockid="Arrow2Mend"
       orient="auto"
       refY="0"
       refX="0"
       id="marker1079"
       style="overflow:visible"
       inkscape:isstock="true">
      <path
         id="path1077"
         style="fill:#000000;fill-opacity:1;fill-rule:evenodd;stroke:#000000;stroke-width:0.625;stroke-linejoin:round;stroke-opacity:1"
         d="M 8.7185878,4.0337352 -2.2072895,0.01601326 8.7185884,-4.0017078 c -1.7454984,2.3720609 -1.7354408,5.6174519 -6e-7,8.035443 z"
         transform="scale(-0.6)"
         inkscape:connector-curvature="0" />
    </marker>
    <marker
       inkscape:isstock="true"
       style="overflow:visible"
       id="marker931"
       refX="0"
       refY="0"
       orient="auto"
       inkscape:stockid="Arrow2Mend">
      <path
         transform="scale(-0.6)"
         d="M 8.7185878,4.0337352 -2.2072895,0.01601326 8.7185884,-4.0017078 c -1.7454984,2.3720609 -1.7354408,5.6174519 -6e-7,8.035443 z"
         style="fill:#000000;fill-opacity:1;fill-rule:evenodd;stroke:#000000;stroke-width:0.625;stroke-linejoin:round;stroke-opacity:1"
         id="path929"
         inkscape:connector-curvature="0" />
    </marker>
    <marker
       inkscape:isstock="true"
       style="overflow:visible"
       id="marker904"
       refX="0"
       refY="0"
       orient="auto"
       inkscape:stockid="Arrow2Mend">
      <path
         transform="scale(-0.6)"
         d="M 8.7185878,4.0337352 -2.2072895,0.01601326 8.7185884,-4.0017078 c -1.7454984,2.3720609 -1.7354408,5.6174519 -6e-7,8.035443 z"
         style="fill:#000000;fill-opacity:1;fill-rule:evenodd;stroke:#000000;stroke-width:0.625;stroke-linejoin:round;stroke-opacity:1"
         id="path902"
         inkscape:connector-curvature="0" />
    </marker>
    <marker
       inkscape:stockid="Arrow2Mend"
       orient="auto"
       refY="0"
       refX="0"
       id="marker1003"
       style="overflow:visible"
       inkscape:isstock="true">
      <path
         id="path1001"
         style="fill:#000000;fill-opacity:1;fill-rule:evenodd;stroke:#000000;stroke-width:0.625;stroke-linejoin:round;stroke-opacity:1"
         d="M 8.7185878,4.0337352 -2.2072895,0.01601326 8.7185884,-4.0017078 c -1.7454984,2.3720609 -1.7354408,5.6174519 -6e-7,8.035443 z"
         transform="scale(-0.6)"
         inkscape:connector-curvature="0" />
    </marker>
    <marker
       inkscape:stockid="Arrow1Lend"
       orient="auto"
       refY="0"
       refX="0"
       id="Arrow1Lend"
       style="overflow:visible"
       inkscape:isstock="true">
      <path
         id="path867"
         d="M 0,0 5,-5 -12.5,0 5,5 Z"
         style="fill:#000000;fill-opacity:1;fill-rule:evenodd;stroke:#000000;stroke-width:1.00000003pt;stroke-opacity:1"
         transform="matrix(-0.8,0,0,-0.8,-10,0)"
         inkscape:connector-curvature="0" />
    </marker>
  </defs>
  <sodipodi:namedview
     id="base"
     pagecolor="#ffffff"
     bordercolor="#666666"
     borderopacity="1.0"
     inkscape:pageopacity="0.0"
     inkscape:pageshadow="2"
     inkscape:zoom="2.0519142"
     inkscape:cx="174.93277"
     inkscape:cy="42.94072"
     inkscape:document-units="mm"
     inkscape:current-layer="layer1"
     showgrid="false"
     inkscape:window-width="1880"
     inkscape:window-height="1055"
     inkscape:window-x="40"
     inkscape:window-y="0"
     inkscape:window-maximized="1"
     fit-margin-top="0"
     fit-margin-left="0"
     fit-margin-right="0"
     fit-margin-bottom="0" />
  <metadata
     id="metadata5">
    <rdf:RDF>
      <cc:Work
         rdf:about="">
        <dc:format>image/svg+xml</dc:format>
        <dc:type
           rdf:resource="http://purl.org/dc/dcmitype/StillImage" />
        <dc:title></dc:title>
      </cc:Work>
    </rdf:RDF>
  </metadata>
  <g
     inkscape:label="Layer 1"
     inkscape:groupmode="layer"
     id="layer1"
     transform="translate(-32.349664,-62.557278)">
    <flowRoot
       xml:space="preserve"
       id="flowRoot4825"
       style="font-style:normal;font-weight:normal;font-size:16px;line-height:1.25;font-family:sans-serif;letter-spacing:0px;word-spacing:0px;fill:#000000;fill-opacity:1;stroke:none"><flowRegion
         id="flowRegion4827"><rect
           id="rect4829"
           width="486.99423"
           height="331.26166"
           x="221.72095"
           y="296.34518" /></flowRegion><flowPara
         id="flowPara4831" /></flowRoot>    <g
       id="g995">
      <rect
         y="8.505229"
         x="75.146431"
         height="26.396307"
         width="26.396309"
         id="rect1117"
         style="fill:none;fill-opacity:0.48258709;stroke:#000000;stroke-width:0.25503927;stroke-miterlimit:4;stroke-dasharray:none;stroke-dashoffset:0;stroke-opacity:1"
         transform="rotate(44.777411)"
         ry="8.9926405" />
      <path
         d="m 52.478409,80.086117 c 1.318829,0.204161 2.553644,-0.699565 2.757828,-2.018485 0.204181,-1.318923 -0.699564,-2.553707 -2.018393,-2.757867 -1.319073,-0.204199 -2.553763,0.699549 -2.757947,2.018469 -0.204184,1.31892 0.699439,2.553685 2.018512,2.757883"
         style="fill:#d2b0db;fill-opacity:1;fill-rule:nonzero;stroke:none;stroke-width:0.01236012"
         id="path1119"
         inkscape:connector-curvature="0" />
      <path
         d="m 52.478409,80.086117 -0.02837,0.183217 c 1.42023,0.219733 2.74943,-0.753181 2.969413,-2.173339 0.219756,-1.420322 -0.753037,-2.749592 -2.173231,-2.969571 -1.420349,-0.219749 -2.749672,0.753146 -2.969675,2.173425 -0.219735,1.4202 0.75318,2.749489 2.173493,2.969485 l 0.02837,-0.183217 0.02838,-0.18334 c -0.609617,-0.09449 -1.121491,-0.426132 -1.459219,-0.887273 -0.33745,-0.461351 -0.498673,-1.049509 -0.404454,-1.658908 0.09448,-0.609484 0.426001,-1.121363 0.887153,-1.459086 0.461361,-0.337439 1.049531,-0.498659 1.659208,-0.404529 0.609358,0.09458 1.121249,0.426096 1.458977,0.887237 0.33745,0.461351 0.49867,1.049507 0.404435,1.65903 -0.09446,0.609362 -0.425981,1.121241 -0.887134,1.458964 -0.461361,0.337439 -1.049551,0.498781 -1.658966,0.404565 l -0.02838,0.18334"
         style="fill:#c59fd2;fill-opacity:1;fill-rule:nonzero;stroke:none;stroke-width:0.01236012"
         id="path1121"
         inkscape:connector-curvature="0" />
      <path
         inkscape:connector-curvature="0"
         id="path1123"
         style="fill:#a967ba;fill-opacity:1;fill-rule:nonzero;stroke:none;stroke-width:0.01236012"
         d="m 54.419423,80.03988 c 1.318829,0.20416 2.553642,-0.699566 2.757826,-2.018487 0.204184,-1.31892 -0.699563,-2.553706 -2.018391,-2.757866 -1.319073,-0.204198 -2.553764,0.699548 -2.757948,2.018468 -0.204184,1.318921 0.699441,2.553687 2.018513,2.757885" />
      <path
         inkscape:connector-curvature="0"
         id="path1125"
         style="fill:#8f45a8;fill-opacity:1;fill-rule:nonzero;stroke:none;stroke-width:0.01236012"
         d="m 54.419423,80.03988 -0.02836,0.183218 c 1.42023,0.219732 2.749429,-0.753182 2.969412,-2.173341 0.219756,-1.42032 -0.753039,-2.749592 -2.17323,-2.969569 -1.420352,-0.219752 -2.749674,0.753143 -2.969675,2.173425 -0.219738,1.420197 0.753179,2.749489 2.173493,2.969485 l 0.02836,-0.183218 0.02838,-0.183339 c -0.60962,-0.0945 -1.121491,-0.426132 -1.459221,-0.887275 -0.337448,-0.46135 -0.498671,-1.049508 -0.404454,-1.658907 0.09448,-0.609484 0.426002,-1.121363 0.887155,-1.459086 0.46136,-0.33744 1.049531,-0.498659 1.659208,-0.404529 0.609356,0.09458 1.121247,0.426095 1.458977,0.887238 0.337448,0.461349 0.49867,1.049507 0.404435,1.659029 -0.09446,0.609362 -0.425983,1.121241 -0.887136,1.458963 -0.46136,0.337441 -1.04955,0.498781 -1.658964,0.404567 l -0.02838,0.183339" />
      <path
         inkscape:connector-curvature="0"
         id="path1131"
         d="m 38.22249,77.676933 h 7.442194"
         style="fill:none;stroke:#000000;stroke-width:0.22621222;stroke-linecap:butt;stroke-linejoin:miter;stroke-miterlimit:4;stroke-dasharray:none;stroke-opacity:1;marker-end:url(#marker1079)"
         sodipodi:nodetypes="cc" />
      <path
         inkscape:connector-curvature="0"
         id="path1133"
         style="fill:#6a78c4;fill-opacity:1;fill-rule:nonzero;stroke:none;stroke-width:0.01236151"
         d="m 36.174207,79.359533 c 0.930425,0.957074 2.460597,0.978645 3.417672,0.04822 0.957075,-0.930423 0.978716,-2.460593 0.04829,-3.417667 -0.930433,-0.957083 -2.460631,-0.97868 -3.417706,-0.04826 -0.957076,0.930423 -0.97869,2.460618 -0.04826,3.417702" />
      <path
         inkscape:connector-curvature="0"
         id="path1135"
         style="fill:#4c5cb3;fill-opacity:1;fill-rule:nonzero;stroke:none;stroke-width:0.01236151"
         d="m 36.174207,79.359533 -0.132952,0.129249 c 1.001971,1.030492 2.649286,1.053744 3.679934,0.05199 1.030547,-1.002038 1.053815,-2.64935 0.05202,-3.680015 -1.002006,-1.030528 -2.649321,-1.053779 -3.680023,-0.0519 -1.030492,1.001916 -1.053761,2.649228 -0.05193,3.679929 l 0.132952,-0.129249 0.133041,-0.129336 c -0.429839,-0.442327 -0.639025,-1.015376 -0.631138,-1.586985 0.0083,-0.571569 0.233544,-1.138405 0.675672,-1.568359 0.442355,-0.429898 1.015326,-0.639076 1.586901,-0.631207 0.571605,0.0083 1.138431,0.233623 1.568535,0.675692 0.429716,0.442378 0.63899,1.01534 0.631137,1.586985 -0.0083,0.571533 -0.233577,1.138369 -0.675795,1.568409 -0.442266,0.429813 -1.015236,0.63899 -1.586777,0.631156 -0.57164,-0.0083 -1.138554,-0.233571 -1.568535,-0.675691 l -0.133041,0.129336" />
      <path
         transform="rotate(-150.17137)"
         d="m -85.198256,-36.425741 a 3.8080339,3.8080339 0 0 1 -4.328372,-1.690068 3.8080339,3.8080339 0 0 1 0.527902,-4.61654"
         sodipodi:end="3.9116453"
         sodipodi:start="1.2868568"
         sodipodi:ry="3.8080339"
         sodipodi:rx="3.8080339"
         sodipodi:cy="-40.081299"
         sodipodi:cx="-86.265038"
         sodipodi:type="arc"
         id="path1139"
         style="fill:none;fill-opacity:1;fill-rule:nonzero;stroke:#000000;stroke-width:0.2053927;stroke-linecap:round;stroke-linejoin:miter;stroke-miterlimit:4;stroke-dasharray:none;stroke-dashoffset:0;stroke-opacity:1;paint-order:markers stroke fill"
         sodipodi:open="true" />
      <path
         sodipodi:open="true"
         style="fill:none;fill-opacity:1;fill-rule:nonzero;stroke:#000000;stroke-width:0.2053927;stroke-linecap:round;stroke-linejoin:miter;stroke-miterlimit:4;stroke-dasharray:none;stroke-dashoffset:0;stroke-opacity:1;paint-order:markers stroke fill"
         id="path1141"
         sodipodi:type="arc"
         sodipodi:cx="-86.276085"
         sodipodi:cy="-40.102585"
         sodipodi:rx="5.2792978"
         sodipodi:ry="5.2792978"
         sodipodi:start="1.2868568"
         sodipodi:end="3.9116453"
         d="m -84.797145,-35.034674 a 5.2792978,5.2792978 0 0 1 -6.000671,-2.343038 5.2792978,5.2792978 0 0 1 0.73186,-6.400178"
         transform="rotate(-150.17137)" />
      <path
         inkscape:connector-curvature="0"
         id="path1147"
         style="fill:#eaa2a6;fill-opacity:1;fill-rule:nonzero;stroke:none;stroke-width:0.01236012"
         d="m 47.794041,80.575837 c -1.31883,-0.204159 -2.55364,0.699565 -2.757828,2.018486 -0.204179,1.318921 0.699561,2.553704 2.018394,2.757863 1.319069,0.204196 2.553764,-0.699544 2.757943,-2.018461 0.204188,-1.318926 -0.69944,-2.553692 -2.018509,-2.757888" />
      <path
         inkscape:connector-curvature="0"
         id="path1149"
         style="fill:#e59393;fill-opacity:1;fill-rule:nonzero;stroke:none;stroke-width:0.01236012"
         d="m 47.794001,80.575841 0.02835,-0.183223 c -1.420228,-0.219731 -2.749431,0.753182 -2.96941,2.173342 -0.219758,1.420321 0.753039,2.749592 2.173227,2.96957 1.420349,0.219747 2.749672,-0.753146 2.969678,-2.173427 0.219734,-1.420196 -0.753182,-2.749487 -2.173495,-2.969485 l -0.02835,0.183223 -0.02839,0.183336 c 0.609616,0.09449 1.121492,0.426132 1.459217,0.887273 0.337452,0.461349 0.498676,1.049508 0.404455,1.658908 -0.09448,0.609484 -0.425999,1.121364 -0.887152,1.459085 -0.461361,0.337445 -1.049533,0.49866 -1.659209,0.404532 -0.609359,-0.09459 -1.121252,-0.426096 -1.458976,-0.887237 -0.337449,-0.461357 -0.498672,-1.049508 -0.404436,-1.659032 0.09446,-0.60936 0.425984,-1.12124 0.887136,-1.458961 0.461357,-0.337445 1.049549,-0.498788 1.658965,-0.404568 l 0.02839,-0.183336" />
      <path
         d="m 45.47428,73.856662 c 0.788244,1.076998 2.300302,1.311166 3.377397,0.52285 1.076994,-0.788243 1.31099,-2.30033 0.522746,-3.377324 -0.788167,-1.076895 -2.300226,-1.311062 -3.377224,-0.522823 -1.077091,0.788316 -1.311086,2.300398 -0.522919,3.377297"
         style="fill:#a8d89d;fill-opacity:1;fill-rule:nonzero;stroke:none;stroke-width:0.01235999"
         id="path1151"
         inkscape:connector-curvature="0" />
      <path
         d="m 45.474276,73.856662 -0.14972,0.109558 c 0.848928,1.159708 2.476823,1.411721 3.636676,0.562989 1.159607,-0.848857 1.411616,-2.476748 0.562884,-3.636604 -0.848781,-1.159508 -2.476748,-1.411616 -3.636504,-0.56296 -1.159704,0.848928 -1.41164,2.476924 -0.563056,3.636575 l 0.14972,-0.109558 0.149693,-0.109587 c -0.364186,-0.497603 -0.491626,-1.094047 -0.404356,-1.658928 0.08762,-0.56483 0.38951,-1.09472 0.887141,-1.459085 0.497678,-0.36409 1.094046,-0.49163 1.658928,-0.404356 0.56493,0.08754 1.094819,0.389434 1.459113,0.886964 0.364165,0.497779 0.491777,1.094251 0.404331,1.659105 -0.08755,0.56493 -0.389437,1.094819 -0.887036,1.459013 -0.497707,0.364261 -1.094074,0.491801 -1.659032,0.404431 -0.564754,-0.08752 -1.09482,-0.389437 -1.459089,-0.887144 l -0.149693,0.109587"
         style="fill:#9dce9a;fill-opacity:1;fill-rule:nonzero;stroke:none;stroke-width:0.01235999"
         id="path1153"
         inkscape:connector-curvature="0" />
      <path
         d="m 47.79404,82.524418 c -1.318831,-0.204163 -2.553642,0.699564 -2.75783,2.018483 -0.204179,1.318921 0.699565,2.553704 2.018395,2.757867 1.319069,0.204196 2.553764,-0.699545 2.757947,-2.018464 0.204185,-1.318927 -0.699443,-2.55369 -2.018512,-2.757886"
         style="fill:#d64c53;fill-opacity:1;fill-rule:nonzero;stroke:none;stroke-width:0.01236012"
         id="path1155"
         inkscape:connector-curvature="0" />
      <path
         d="m 47.793984,82.524418 0.02836,-0.18322 c -1.420228,-0.219731 -2.749431,0.753181 -2.969411,2.173342 -0.219759,1.420319 0.753038,2.749593 2.17323,2.96957 1.42035,0.21975 2.749672,-0.753145 2.969677,-2.173428 0.219733,-1.420197 -0.753182,-2.749488 -2.173496,-2.969484 l -0.02836,0.18322 -0.02838,0.183337 c 0.609618,0.0945 1.12149,0.426132 1.459221,0.887275 0.337448,0.461348 0.498671,1.049506 0.404453,1.658905 -0.09448,0.609485 -0.426003,1.121366 -0.887155,1.459088 -0.461359,0.337442 -1.049529,0.49866 -1.659208,0.40453 -0.609357,-0.09458 -1.121249,-0.426096 -1.458977,-0.887236 -0.337448,-0.461354 -0.498668,-1.04951 -0.404434,-1.659033 0.09446,-0.60936 0.425983,-1.121238 0.887135,-1.45896 0.46136,-0.337443 1.049552,-0.498785 1.658965,-0.404569 l 0.02838,-0.183337"
         style="fill:#cd2e2f;fill-opacity:1;fill-rule:nonzero;stroke:none;stroke-width:0.01236012"
         id="path1157"
         inkscape:connector-curvature="0" />
      <path
         inkscape:connector-curvature="0"
         id="path1161"
         style="fill:#56b342;fill-opacity:1;fill-rule:nonzero;stroke:none;stroke-width:0.01235999"
         d="m 45.474265,71.869176 c 0.788242,1.076995 2.300299,1.311161 3.377394,0.522847 1.076995,-0.788242 1.310989,-2.300326 0.522748,-3.377321 -0.788168,-1.076895 -2.300226,-1.311062 -3.377221,-0.52282 -1.077095,0.788314 -1.311089,2.300399 -0.522921,3.377294" />
      <path
         inkscape:connector-curvature="0"
         id="path1163"
         style="fill:#3b9c3b;fill-opacity:1;fill-rule:nonzero;stroke:none;stroke-width:0.01235999"
         d="m 45.474265,71.869176 -0.14971,0.109571 c 0.84893,1.159706 2.476823,1.411717 3.636675,0.562986 1.159607,-0.848858 1.411618,-2.47675 0.562887,-3.636602 -0.848784,-1.159507 -2.47675,-1.411617 -3.636502,-0.562959 -1.159706,0.84893 -1.411645,2.476923 -0.56306,3.636575 l 0.14971,-0.109571 0.14971,-0.109571 c -0.364191,-0.497604 -0.491629,-1.094046 -0.404357,-1.658929 0.08762,-0.56483 0.389509,-1.09472 0.887139,-1.459084 0.497677,-0.364092 1.094046,-0.49163 1.658929,-0.404358 0.56493,0.08754 1.09482,0.389436 1.45911,0.886966 0.364165,0.497777 0.491776,1.094245 0.404331,1.659102 -0.08754,0.56493 -0.389435,1.094819 -0.887039,1.459011 -0.497704,0.364264 -1.094073,0.491802 -1.659029,0.404431 -0.564757,-0.08752 -1.09482,-0.389436 -1.459084,-0.887139 l -0.14971,0.109571" />
      <path
         sodipodi:open="true"
         style="fill:none;fill-opacity:1;fill-rule:nonzero;stroke:#000000;stroke-width:0.2053927;stroke-linecap:round;stroke-linejoin:miter;stroke-miterlimit:4;stroke-dasharray:none;stroke-dashoffset:0;stroke-opacity:1;paint-order:markers stroke fill"
         id="path1167"
         sodipodi:type="arc"
         sodipodi:cx="38.345772"
         sodipodi:cy="-75.636642"
         sodipodi:rx="3.8080339"
         sodipodi:ry="3.8080339"
         sodipodi:start="1.2868568"
         sodipodi:end="3.9116453"
         d="m 39.412553,-71.981085 a 3.8080339,3.8080339 0 0 1 -4.328372,-1.690067 3.8080339,3.8080339 0 0 1 0.527902,-4.616541"
         transform="rotate(119.08548)" />
      <path
         transform="rotate(119.08548)"
         d="m 39.818967,-70.580458 a 5.2792978,5.2792978 0 0 1 -6.000672,-2.343038 5.2792978,5.2792978 0 0 1 0.731861,-6.400178"
         sodipodi:end="3.9116453"
         sodipodi:start="1.2868568"
         sodipodi:ry="5.2792978"
         sodipodi:rx="5.2792978"
         sodipodi:cy="-75.648369"
         sodipodi:cx="38.340027"
         sodipodi:type="arc"
         id="path1169"
         style="fill:none;fill-opacity:1;fill-rule:nonzero;stroke:#000000;stroke-width:0.2053927;stroke-linecap:round;stroke-linejoin:miter;stroke-miterlimit:4;stroke-dasharray:none;stroke-dashoffset:0;stroke-opacity:1;paint-order:markers stroke fill"
         sodipodi:open="true" />
      <path
         transform="matrix(-0.52717326,-0.84975782,-0.84975782,0.52717326,0,0)"
         d="m -96.180381,8.2251547 a 3.8080339,3.8080339 0 0 1 -4.328369,-1.6900674 3.8080339,3.8080339 0 0 1 0.5279,-4.6165406"
         sodipodi:end="3.9116453"
         sodipodi:start="1.2868568"
         sodipodi:ry="3.8080339"
         sodipodi:rx="3.8080339"
         sodipodi:cy="4.5695972"
         sodipodi:cx="-97.247162"
         sodipodi:type="arc"
         id="path1171"
         style="fill:none;fill-opacity:1;fill-rule:nonzero;stroke:#000000;stroke-width:0.20539269;stroke-linecap:round;stroke-linejoin:miter;stroke-miterlimit:4;stroke-dasharray:none;stroke-dashoffset:0;stroke-opacity:1;paint-order:markers stroke fill"
         sodipodi:open="true" />
      <path
         sodipodi:open="true"
         style="fill:none;fill-opacity:1;fill-rule:nonzero;stroke:#000000;stroke-width:0.20539269;stroke-linecap:round;stroke-linejoin:miter;stroke-miterlimit:4;stroke-dasharray:none;stroke-dashoffset:0;stroke-opacity:1;paint-order:markers stroke fill"
         id="path1173"
         sodipodi:type="arc"
         sodipodi:cx="-97.258202"
         sodipodi:cy="4.5483122"
         sodipodi:rx="5.2792978"
         sodipodi:ry="5.2792978"
         sodipodi:start="1.2868568"
         sodipodi:end="3.9116453"
         d="m -95.779261,9.6162231 a 5.2792978,5.2792978 0 0 1 -6.000669,-2.3430383 5.2792978,5.2792978 0 0 1 0.73186,-6.40017739"
         transform="matrix(-0.52717326,-0.84975782,-0.84975782,0.52717326,0,0)" />
      <path
         inkscape:connector-curvature="0"
         d="m 66.515934,71.046734 h 3.534949 l 5.115278,10.116191 5.052896,-10.116191 h 3.462171 V 85.851931 H 80.052707 V 76.2036 l -4.834562,9.648331 H 73.814563 L 68.81365,76.089234 v 9.762697 h -2.297716 z"
         style="font-style:normal;font-variant:normal;font-weight:normal;font-stretch:normal;font-size:17.48660469px;line-height:1.25;font-family:'Tamil MN';-inkscape-font-specification:'Tamil MN';letter-spacing:0px;word-spacing:0px;fill:#000000;fill-opacity:1;stroke:none;stroke-width:0.53232163"
         id="path2022" />
      <path
         inkscape:connector-curvature="0"
         d="m 92.445819,86.059869 q -1.330801,0 -2.464065,-0.43667 -1.133263,-0.43667 -1.954619,-1.195644 -0.821356,-0.769371 -1.289217,-1.809062 -0.457464,-1.039692 -0.457464,-2.235335 0,-1.289218 0.457464,-2.370495 0.467861,-1.091675 1.289217,-1.871444 0.821356,-0.790165 1.944222,-1.226835 1.133262,-0.447067 2.464063,-0.447067 1.330813,0 2.464072,0.43667 1.143657,0.426273 1.96501,1.185247 0.831752,0.758975 1.299617,1.777871 0.467864,1.018898 0.467864,2.193748 0,1.237232 -0.467864,2.328907 -0.467865,1.091676 -1.299617,1.913031 -0.821353,0.810959 -1.954611,1.289218 -1.133271,0.46786 -2.464072,0.46786 z m 0.395084,-1.361995 q 0.467865,0 0.85255,-0.30151 0.395084,-0.30151 0.675793,-0.810959 0.280721,-0.509449 0.436668,-1.174851 0.166358,-0.665401 0.166358,-1.393185 0,-1.070881 -0.155959,-2.017 -0.155947,-0.946119 -0.519847,-1.653109 -0.353488,-0.70699 -0.935716,-1.122866 -0.571829,-0.415876 -1.403581,-0.415876 -0.395084,0 -0.769371,0.30151 -0.3639,0.291114 -0.644608,0.790165 -0.28072,0.499052 -0.457467,1.154057 -0.166351,0.655005 -0.166351,1.372392 0,1.081278 0.197541,2.037793 0.197541,0.956516 0.571836,1.673903 0.384686,0.717387 0.925318,1.14366 0.540644,0.415876 1.226836,0.415876 z"
         style="font-style:normal;font-variant:normal;font-weight:normal;font-stretch:normal;font-size:17.48660469px;line-height:1.25;font-family:'Tamil MN';-inkscape-font-specification:'Tamil MN';letter-spacing:0px;word-spacing:0px;fill:#000000;fill-opacity:1;stroke:none;stroke-width:0.53232163"
         id="path2024" />
      <path
         inkscape:connector-curvature="0"
         d="m 104.17354,85.851931 h -3.35821 V 70.204584 l 3.35821,-0.935721 z"
         style="font-style:normal;font-variant:normal;font-weight:normal;font-stretch:normal;font-size:17.48660469px;line-height:1.25;font-family:'Tamil MN';-inkscape-font-specification:'Tamil MN';letter-spacing:0px;word-spacing:0px;fill:#000000;fill-opacity:1;stroke:none;stroke-width:0.53232163"
         id="path2026" />
      <path
         inkscape:connector-curvature="0"
         d="m 112.48066,86.080662 q -1.3308,0 -2.32891,-0.311907 -0.9981,-0.311906 -1.70509,-0.862943 -0.69659,-0.551036 -1.11247,-1.310011 -0.40547,-0.758973 -0.56143,-1.663505 h 2.51605 q 0.13516,0.551037 0.38469,1.039692 0.24952,0.478257 0.63421,0.831752 0.38468,0.353495 0.91493,0.561433 0.53023,0.197541 1.22683,0.197541 0.46786,0 0.91492,-0.09358 0.45747,-0.103965 0.81097,-0.322303 0.36389,-0.218336 0.58223,-0.57183 0.21833,-0.363893 0.21833,-0.883738 0,-0.665402 -0.34309,-1.174851 -0.33271,-0.509449 -0.89414,-0.925325 -0.55104,-0.426272 -1.26843,-0.790165 -0.70699,-0.363891 -1.44516,-0.727782 -0.73819,-0.374289 -1.45558,-0.769372 -0.70699,-0.40548 -1.26842,-0.904531 -0.55103,-0.499051 -0.89413,-1.122866 -0.3327,-0.623815 -0.3327,-1.434774 0,-0.883736 0.38468,-1.632313 0.38469,-0.758975 1.11247,-1.310011 0.73819,-0.551037 1.79867,-0.862943 1.06049,-0.311908 2.41208,-0.311908 1.12287,0 2.0274,0.311908 0.90453,0.311906 1.59072,0.852546 0.69659,0.530243 1.16446,1.258025 0.47826,0.727784 0.72779,1.569934 h -2.28733 q -0.19754,-0.530243 -0.45747,-1.0085 -0.25992,-0.478258 -0.6446,-0.84215 -0.38469,-0.363891 -0.92532,-0.57183 -0.54065,-0.218335 -1.29962,-0.218335 -0.70699,0 -1.19564,0.187145 -0.48866,0.187144 -0.79017,0.478257 -0.3015,0.280717 -0.43666,0.634212 -0.12477,0.353495 -0.12477,0.696592 0,0.592624 0.34309,1.081279 0.3535,0.478257 0.92533,0.894134 0.58223,0.40548 1.31002,0.790165 0.72777,0.374288 1.48675,0.758974 0.76937,0.384686 1.49715,0.800562 0.73819,0.415876 1.31002,0.925325 0.58223,0.499051 0.92532,1.112468 0.3535,0.613419 0.3535,1.382789 0,0.904531 -0.37429,1.6843 -0.3743,0.769371 -1.11247,1.351598 -0.72779,0.571829 -1.81946,0.904531 -1.08128,0.322303 -2.49526,0.322303 z"
         style="font-style:normal;font-variant:normal;font-weight:normal;font-stretch:normal;font-size:17.48660469px;line-height:1.25;font-family:'Tamil MN';-inkscape-font-specification:'Tamil MN';letter-spacing:0px;word-spacing:0px;fill:#000000;fill-opacity:1;stroke:none;stroke-width:0.53232163"
         id="path2028" />
      <path
         inkscape:connector-curvature="0"
         d="m 121.03732,75.299069 3.37899,-0.935721 v 11.488583 h -3.37899 z m -0.14556,-4.16916 q 0,-0.343097 0.13516,-0.644607 0.14556,-0.301511 0.39508,-0.519846 0.24953,-0.228732 0.58223,-0.353495 0.3327,-0.135159 0.70699,-0.135159 0.37429,0 0.70699,0.135159 0.3327,0.124763 0.58223,0.353495 0.24952,0.218335 0.39508,0.519846 0.14555,0.30151 0.14555,0.644607 0,0.343099 -0.14555,0.644609 -0.14556,0.30151 -0.39508,0.519845 -0.24953,0.218335 -0.58223,0.353495 -0.3327,0.124764 -0.70699,0.124764 -0.37429,0 -0.70699,-0.124764 -0.3327,-0.13516 -0.58223,-0.353495 -0.24952,-0.218335 -0.39508,-0.519845 -0.13516,-0.30151 -0.13516,-0.644609 z"
         style="font-style:normal;font-variant:normal;font-weight:normal;font-stretch:normal;font-size:17.48660469px;line-height:1.25;font-family:'Tamil MN';-inkscape-font-specification:'Tamil MN';letter-spacing:0px;word-spacing:0px;fill:#000000;fill-opacity:1;stroke:none;stroke-width:0.53232163"
         id="path2030" />
      <path
         inkscape:connector-curvature="0"
         d="m 140.99938,78.272585 q 0,-0.374289 -0.0935,-0.70699 -0.0832,-0.332701 -0.24954,-0.582226 -0.15594,-0.249526 -0.37428,-0.395083 -0.21833,-0.145557 -0.47825,-0.145557 -0.29112,0 -0.61343,0.103965 -0.3119,0.09358 -0.62381,0.259922 -0.30151,0.166351 -0.58223,0.384686 -0.28072,0.218335 -0.47826,0.467861 v 8.192763 h -3.36859 V 78.27258 q 0,-0.374289 -0.10399,-0.70699 -0.0936,-0.332701 -0.25992,-0.582226 -0.16636,-0.249526 -0.38469,-0.395083 -0.21834,-0.145557 -0.44707,-0.145557 -0.27032,0 -0.58222,0.103965 -0.31192,0.09358 -0.62383,0.259922 -0.3015,0.166351 -0.59261,0.384687 -0.29112,0.218335 -0.51985,0.46786 v 8.192763 h -3.379 V 74.696039 h 3.379 v 0.956515 q 0.80056,-0.540639 1.65311,-0.862942 0.85255,-0.322304 1.6427,-0.322304 0.43668,0 0.88375,0.103964 0.44707,0.09358 0.85254,0.270318 0.41588,0.176749 0.75897,0.447068 0.3535,0.259922 0.59263,0.582227 0.38468,-0.311907 0.84215,-0.57183 0.46786,-0.259922 0.96691,-0.43667 0.50945,-0.187145 1.0293,-0.291113 0.53024,-0.103964 1.05009,-0.103964 0.71739,0 1.3516,0.280716 0.6446,0.270319 1.12286,0.748577 0.48866,0.478258 0.76937,1.122867 0.28072,0.644607 0.28072,1.382787 v 7.849666 h -3.42059 z"
         style="font-style:normal;font-variant:normal;font-weight:normal;font-stretch:normal;font-size:17.48660469px;line-height:1.25;font-family:'Tamil MN';-inkscape-font-specification:'Tamil MN';letter-spacing:0px;word-spacing:0px;fill:#000000;fill-opacity:1;stroke:none;stroke-width:0.53232163"
         id="path2032" />
    </g>
  </g>
</svg>
